<?xml version="1.0" standalone="no"?>
<!DOCTYPE svg PUBLIC "-//W3C//DTD SVG 20010904//EN"
 "http://www.w3.org/TR/2001/REC-SVG-20010904/DTD/svg10.dtd">
<svg version="1.0" xmlns="http://www.w3.org/2000/svg"
 width="223.000000pt" height="223.000000pt" viewBox="0 0 223.000000 223.000000"
 preserveAspectRatio="xMidYMid meet">

<g transform="translate(0.000000,223.000000) scale(0.100000,-0.100000)"
fill="#000000" stroke="none">
<path d="M1656 2215 c4 -8 1 -15 -6 -15 -8 0 -11 -9 -8 -25 6 -28 -8 -35 -15
-7 -3 9 -5 3 -6 -14 0 -17 6 -37 14 -44 8 -7 15 -19 15 -26 0 -8 8 -14 18 -15
9 0 4 -5 -12 -9 -16 -5 -33 -7 -37 -4 -12 7 -59 -7 -59 -17 0 -5 7 -9 15 -9 8
0 20 -9 27 -20 7 -11 18 -20 25 -20 8 0 10 -10 8 -27 -10 -62 -22 -98 -33 -96
-6 2 -9 -4 -6 -12 11 -27 -28 -6 -103 55 -7 6 -21 10 -32 10 -14 0 -23 9 -27
25 -3 14 -10 22 -15 19 -5 -3 -17 9 -27 26 -9 17 -26 32 -37 35 -11 2 -52 11
-92 20 -39 9 -80 14 -90 11 -10 -3 -38 -7 -62 -8 -29 -1 -45 -7 -49 -17 -8
-21 -22 -31 -49 -31 -31 0 -29 14 3 28 32 15 22 32 -18 32 -27 0 -30 -3 -26
-25 4 -17 1 -25 -8 -25 -9 0 -14 12 -14 35 0 28 -4 35 -20 35 -11 0 -23 0 -27
0 -5 0 -10 -25 -13 -57 -5 -53 -7 -58 -37 -70 l-33 -13 0 74 c0 80 0 80 -43
90 l-29 7 3 -114 3 -114 -39 -52 c-21 -28 -42 -51 -45 -51 -3 0 -7 -12 -8 -27
-3 -44 -20 -51 -33 -15 -6 18 -15 32 -20 32 -12 0 -11 -32 2 -85 10 -40 9 -46
-15 -78 -20 -27 -27 -50 -32 -108 -6 -64 -4 -79 15 -112 11 -21 21 -46 21 -56
0 -11 6 -22 13 -24 6 -3 2 -6 -10 -6 -24 -1 -27 -12 -14 -46 8 -19 9 -18 21 7
11 23 15 25 31 15 21 -13 26 -38 7 -34 -8 1 -14 -10 -16 -25 -3 -26 4 -32 33
-29 13 1 51 -82 59 -131 7 -39 -7 -54 -17 -18 -7 26 -24 26 -32 -1 -8 -24 21
-51 45 -44 17 5 44 -45 85 -162 l22 -61 -36 -29 c-67 -53 -114 -101 -107 -111
3 -5 -1 -15 -9 -22 -14 -12 -15 -55 -2 -77 12 -18 57 -3 59 21 0 11 2 27 2 34
1 8 10 18 21 24 11 6 23 16 26 21 4 5 12 6 18 3 8 -5 5 -16 -9 -36 -21 -30
-26 -66 -10 -90 5 -9 5 -19 -2 -27 -8 -10 -6 -13 5 -13 8 0 21 -14 29 -30 7
-17 16 -30 20 -30 5 0 8 -7 8 -15 0 -9 13 -28 29 -44 24 -24 28 -34 22 -61
l-6 -32 -28 22 c-25 20 -29 21 -51 7 -12 -9 -31 -17 -42 -19 -25 -4 -34 -17
-34 -50 0 -24 4 -28 30 -28 17 0 30 -4 30 -10 0 -5 12 -10 27 -10 14 0 45 -15
69 -33 44 -32 51 -50 45 -114 -2 -23 -1 -23 136 -22 76 1 130 3 121 6 -34 9
-18 24 17 17 21 -4 41 -2 49 5 16 13 42 6 50 -15 6 -15 36 -20 36 -5 0 5 -7
14 -15 21 -8 7 -15 18 -15 25 0 7 -15 22 -32 34 -23 14 -27 21 -15 21 21 0 23
26 1 34 -9 3 -28 6 -44 6 -16 0 -42 11 -58 25 -17 14 -35 25 -40 25 -18 0 -25
22 -11 31 11 7 11 11 2 17 -19 12 31 69 73 82 26 9 34 17 34 35 0 19 7 25 33
30 18 4 37 5 42 4 20 -5 114 13 131 25 13 10 27 11 56 3 28 -7 43 -6 51 2 6 6
22 11 35 11 13 0 33 5 44 11 15 8 19 8 14 0 -4 -6 4 -15 21 -22 15 -5 31 -16
35 -22 12 -19 9 86 -4 142 -6 28 -8 54 -4 58 7 8 37 -30 48 -62 10 -27 3 53
-7 84 -8 22 -6 23 21 17 37 -9 54 -25 106 -97 24 -32 55 -64 70 -70 15 -6 35
-20 44 -30 18 -20 46 -90 39 -97 -2 -2 -21 10 -42 27 -64 53 -66 30 -18 -189
27 -122 32 -152 34 -177 1 -18 21 -16 21 2 0 11 11 15 35 15 22 0 38 -6 41
-15 5 -12 24 -15 85 -15 l79 0 0 109 c0 98 -3 115 -25 157 -28 52 -26 67 5 39
20 -18 20 -18 20 288 0 266 -2 307 -15 307 -8 0 -15 5 -15 10 0 15 -17 12 -35
-7 -14 -14 -18 -14 -26 -2 -8 12 -10 12 -19 -1 -7 -11 -30 -15 -99 -15 -49 0
-93 -4 -97 -8 -15 -15 -34 -6 -34 17 0 26 -24 51 -39 41 -11 -6 -37 16 -62 56
-19 28 -8 62 16 53 11 -5 15 1 15 19 0 34 -17 77 -30 77 -14 0 -13 -37 2 -46
9 -6 5 -10 -12 -14 -14 -4 -24 -13 -22 -20 2 -7 -6 -22 -16 -34 -32 -36 -38
-50 -14 -35 12 7 23 11 25 9 9 -11 16 -70 8 -70 -5 0 -11 -9 -14 -21 -3 -12
-10 -18 -16 -15 -6 4 -8 13 -5 20 3 7 -2 19 -12 26 -14 12 -18 11 -27 -5 -7
-11 -14 -33 -17 -48 -3 -15 -9 -27 -15 -27 -5 1 -9 9 -7 18 2 9 6 39 9 65 4
36 12 52 29 64 27 17 31 33 9 33 -11 0 -14 10 -11 40 3 36 16 70 16 43 0 -6 7
-13 14 -16 10 -4 13 -1 10 8 -7 17 14 57 26 50 5 -3 11 -1 15 5 3 5 0 10 -8
10 -8 0 -18 7 -21 16 -4 9 -13 14 -21 10 -9 -3 -15 0 -15 10 0 8 4 13 9 10 20
-13 29 91 10 126 -9 17 -8 24 4 33 12 8 14 24 10 70 -11 123 -10 127 16 132
15 2 28 -3 33 -12 10 -17 34 -20 43 -5 8 13 -15 96 -23 84 -9 -13 -72 -57 -76
-53 -1 2 -12 22 -23 44 -20 40 -39 160 -23 150 4 -3 10 4 13 14 3 15 1 18 -12
14 -11 -4 -10 -1 4 10 33 27 45 21 45 -22 0 -59 11 -101 26 -101 8 0 14 5 14
10 0 17 37 48 62 52 21 3 23 0 20 -32 -1 -19 -8 -38 -15 -42 -8 -5 -4 -8 11
-8 18 0 21 -4 17 -22 -7 -30 19 -103 37 -103 20 0 23 87 4 124 -23 44 -19 60
8 29 l24 -27 25 32 25 32 7 -38 c7 -36 8 -37 26 -21 37 34 19 -8 -26 -61 -50
-57 -46 -85 4 -36 17 17 31 34 31 39 0 5 12 19 26 33 23 22 22 18 -10 -39 -41
-73 -44 -92 -16 -92 11 0 20 -4 20 -10 0 -5 -7 -10 -15 -10 -8 0 -22 -14 -30
-31 -12 -22 -21 -28 -34 -24 -17 5 -19 0 -18 -45 1 -39 4 -49 15 -45 7 3 20 5
28 5 10 0 14 13 14 49 0 57 15 76 25 31 8 -35 12 -36 37 -13 24 22 30 13 17
-25 -10 -29 -20 -37 -41 -33 -5 0 -8 -7 -8 -18 0 -10 -11 -27 -25 -37 -30 -23
-33 -54 -6 -54 29 0 35 -17 11 -30 -11 -6 -20 -20 -20 -30 0 -20 0 -20 19 -1
17 17 24 18 45 8 19 -9 24 -17 20 -32 -9 -28 -9 -26 5 -60 27 -70 28 -71 27
-10 -1 51 2 60 17 60 26 0 33 18 36 83 2 72 17 119 42 132 14 8 19 21 19 51 0
47 -21 61 -51 33 -25 -23 -53 -9 -57 30 -4 29 22 46 41 27 6 -6 24 -11 39 -11
l28 0 0 350 0 350 -290 0 c-253 0 -289 -2 -284 -15z m31 -17 c-3 -8 -6 -5 -6
6 -1 11 2 17 5 13 3 -3 4 -12 1 -19z m-10 -204 c-3 -3 -12 -4 -19 -1 -8 3 -5
6 6 6 11 1 17 -2 13 -5z m48 -14 c-3 -5 -10 -10 -16 -10 -5 0 -9 5 -9 10 0 6
7 10 16 10 8 0 12 -4 9 -10z m-641 -29 c-5 -5 -24 -12 -41 -16 -26 -5 -33 -3
-33 9 0 10 12 16 38 18 42 3 50 1 36 -11z m30 -29 c5 -8 121 -6 135 2 16 10
53 -28 46 -47 -4 -9 -12 -14 -17 -11 -18 11 -150 34 -160 28 -5 -3 -21 -3 -35
1 -24 6 -25 7 -7 20 22 16 31 18 38 7z m241 -48 c12 -18 12 -24 2 -24 -7 0
-21 13 -30 30 -15 24 -15 29 -3 24 8 -3 22 -17 31 -30z m53 -10 c-10 -10 -28
6 -28 24 0 15 1 15 17 -1 9 -9 14 -19 11 -23z m46 -23 c-7 -7 -33 33 -34 49 0
8 8 2 19 -15 10 -16 17 -32 15 -34z m126 -53 c0 -10 -4 -18 -9 -18 -13 0 -21
27 -14 46 5 13 7 13 14 2 5 -7 9 -21 9 -30z m-63 16 c-3 -3 -12 -4 -19 -1 -8
3 -5 6 6 6 11 1 17 -2 13 -5z m-682 -151 c4 -14 2 -23 -4 -23 -6 0 -11 3 -11
8 0 4 -3 18 -6 32 -8 31 11 16 21 -17z m576 -30 c18 -47 5 -60 -64 -65 -77 -5
-141 -34 -145 -66 -2 -13 -10 -22 -21 -22 -10 0 -39 -3 -65 -6 -35 -5 -46 -4
-44 5 2 8 -11 14 -32 17 -19 2 -44 5 -55 7 -11 3 -44 -2 -74 -9 -110 -29 -66
17 69 71 81 33 110 40 201 45 85 5 114 11 143 29 20 13 36 27 36 32 0 19 41
-12 51 -38z m-676 -51 c0 -18 -20 -15 -23 4 -3 10 1 15 10 12 7 -3 13 -10 13
-16z m749 -105 c-3 -9 -16 -17 -28 -17 -21 -1 -21 -1 -1 -13 36 -22 30 -39
-12 -31 -44 9 -60 9 -90 -1 -17 -6 -23 -3 -23 9 0 8 -12 22 -27 30 -28 15 -27
15 32 17 33 1 78 1 100 -1 34 -2 38 0 27 13 -10 12 -10 16 0 20 18 7 30 -7 22
-26z m-437 -3 c-3 -3 -12 -4 -19 -1 -8 3 -5 6 6 6 11 1 17 -2 13 -5z m-51 -24
c8 0 14 -5 14 -10 0 -6 -11 -8 -27 -4 -23 5 -26 4 -15 -7 20 -22 15 -49 -10
-50 -91 -5 -115 -15 -121 -46 -3 -16 -4 -29 -3 -30 1 -1 24 4 51 12 84 26 127
13 57 -18 l-27 -11 32 -4 c17 -2 45 4 60 12 33 17 79 97 68 118 -4 7 0 6 10
-4 22 -21 15 -71 -18 -119 -44 -67 -205 -79 -248 -19 -11 14 -23 48 -28 75 -9
47 -8 51 17 72 20 17 40 22 80 23 36 0 51 4 46 11 -4 8 0 9 15 4 14 -4 21 -2
22 7 0 10 2 10 6 1 2 -7 11 -13 19 -13z m-246 -20 c0 -5 -5 -10 -11 -10 -5 0
-7 5 -4 10 3 6 8 10 11 10 2 0 4 -4 4 -10z m417 -22 c11 -13 27 -43 36 -68 26
-69 61 -124 80 -128 10 -2 17 3 17 12 0 13 14 16 83 16 113 0 148 18 164 85
19 75 20 77 41 66 39 -21 54 -201 16 -201 -20 0 -60 -86 -69 -145 -5 -40 -15
-60 -51 -98 -32 -36 -44 -44 -44 -30 0 10 -9 24 -20 31 -11 7 -20 19 -20 28 0
9 9 18 20 21 15 4 20 14 20 39 0 28 -4 34 -21 34 -12 0 -39 5 -60 12 -35 10
-40 15 -46 50 -3 24 -12 42 -22 45 -9 2 -24 9 -33 14 -26 14 -39 11 -65 -13
-21 -19 -26 -20 -48 -8 -28 15 -75 5 -82 -17 -3 -9 9 -11 44 -7 41 5 52 2 73
-18 l25 -23 -45 -8 c-25 -5 -52 -11 -60 -14 -23 -8 28 -24 70 -23 76 4 141 0
136 -8 -3 -5 -44 -10 -91 -11 -48 -1 -105 -8 -128 -16 -54 -19 -67 -19 -67 2
0 14 -2 14 -20 -2 -22 -20 -27 -60 -9 -71 10 -6 31 1 91 32 29 15 155 19 177
5 10 -6 10 -13 2 -28 -8 -16 -24 -22 -66 -25 -64 -5 -85 -20 -69 -46 9 -14 29
-18 100 -20 74 -2 92 -6 111 -24 13 -12 23 -25 23 -28 0 -14 -95 -27 -124 -17
-22 7 -32 5 -49 -11 -30 -27 -61 -42 -87 -42 -28 0 -100 37 -107 56 -4 11 -14
13 -39 8 -26 -5 -35 -2 -40 10 -3 9 -17 16 -30 16 -15 0 -24 6 -24 15 0 8 -7
15 -15 15 -8 0 -15 3 -15 8 0 4 -14 23 -30 42 -16 19 -32 51 -35 70 -3 19 -9
49 -14 65 -27 94 -32 128 -29 200 2 65 6 80 20 83 11 2 23 -11 36 -42 32 -70
54 -79 177 -74 66 3 110 10 120 18 24 20 45 77 49 134 3 28 5 52 5 54 3 8 20
-1 38 -20z m354 -101 c-14 -35 -46 -47 -132 -47 -87 0 -128 19 -129 59 0 10 3
11 13 2 19 -15 164 -7 210 12 26 11 37 23 39 39 1 16 2 14 5 -8 2 -16 -1 -42
-6 -57z m-164 37 c-3 -3 -12 -4 -19 -1 -8 3 -5 6 6 6 11 1 17 -2 13 -5z m453
-394 c0 -5 -4 -10 -10 -10 -5 0 -10 5 -10 10 0 6 5 10 10 10 6 0 10 -4 10 -10z
m-386 -19 c3 -4 0 -16 -7 -25 -11 -14 -15 -15 -31 -3 -11 8 -16 19 -12 25 8
14 42 16 50 3z m376 -21 c0 -11 -4 -20 -10 -20 -5 0 -10 9 -10 20 0 11 5 20
10 20 6 0 10 -9 10 -20z m61 -20 c11 0 17 -4 14 -10 -3 -5 -16 -9 -29 -8 -18
2 -22 7 -18 22 3 11 7 15 10 8 2 -6 13 -12 23 -12z m-997 -306 c-13 -10 -64
-8 -64 3 0 2 10 17 22 33 l21 30 18 -28 c14 -23 15 -29 3 -38z m164 -35 c5
-11 12 -20 17 -20 6 0 10 -7 11 -17 1 -9 2 -24 3 -33 1 -16 65 -49 94 -49 19
0 23 -25 6 -36 -10 -6 -56 4 -109 24 -8 3 -19 6 -23 6 -12 1 -27 29 -27 49 0
10 4 16 9 13 5 -3 14 1 21 9 10 12 7 15 -14 21 -19 4 -26 13 -26 30 0 30 28
32 38 3z m252 -98 c0 -14 -6 -17 -25 -13 -39 7 -30 24 18 31 4 0 7 -7 7 -18z
m778 -41 c8 -22 45 -60 58 -60 24 0 15 -19 -13 -26 -21 -6 -31 -2 -50 22 -13
16 -31 42 -39 58 l-16 29 29 -7 c15 -4 29 -11 31 -16z m-1032 -84 c14 -30 33
-57 42 -59 10 -3 3 -5 -14 -6 -29 -1 -33 3 -48 48 -29 88 -18 97 20 17z m939
18 c25 -25 25 -26 5 -31 -24 -6 -25 -11 -3 -37 l17 -21 -21 20 c-20 18 -43 95
-30 95 4 0 18 -12 32 -26z"/>
<path d="M940 1073 c-24 -30 -23 -76 0 -81 11 -2 19 11 28 43 20 74 11 87 -28
38z"/>
<path d="M15 2179 c-4 -6 -4 -38 -1 -72 3 -34 7 -111 8 -172 2 -140 2 -142 44
-147 19 -2 34 -2 34 -1 0 2 -9 22 -21 45 l-21 41 21 -6 c20 -5 20 -3 15 136
-7 185 -7 187 -44 187 -16 0 -32 -5 -35 -11z"/>
<path d="M107 2173 c-3 -5 -2 -77 1 -162 5 -150 6 -155 31 -179 l26 -23 8 28
c4 15 8 93 7 173 -1 122 -3 147 -17 158 -19 13 -49 16 -56 5z"/>
<path d="M269 2174 c-1 -5 0 -39 1 -76 2 -63 0 -68 -19 -68 -26 0 -27 -15 -1
-37 12 -11 20 -30 20 -49 0 -41 8 -47 41 -27 l29 17 0 118 c0 88 -3 118 -12
118 -7 0 -23 3 -35 6 -13 4 -23 2 -24 -2z"/>
<path d="M364 2063 c3 -42 6 -88 6 -103 0 -19 7 -30 25 -38 53 -24 55 -21 55
97 0 119 -1 120 -69 121 -24 0 -24 -1 -17 -77z"/>
<path d="M464 2115 c-8 -19 2 -210 11 -225 3 -5 12 -10 19 -10 15 0 24 44 35
155 l7 70 8 -50 c18 -117 47 -168 54 -95 l4 35 18 -34 17 -35 -3 95 -4 94 -54
1 c-30 1 -66 4 -81 8 -18 5 -27 2 -31 -9z"/>
<path d="M1580 2120 c0 -5 5 -10 11 -10 5 0 7 5 4 10 -3 6 -8 10 -11 10 -2 0
-4 -4 -4 -10z"/>
<path d="M644 2084 c3 -9 6 -51 6 -95 l0 -79 28 0 c43 0 52 17 52 95 0 81 -9
95 -58 95 -27 0 -33 -3 -28 -16z"/>
<path d="M202 2050 c0 -14 2 -19 5 -12 2 6 2 18 0 25 -3 6 -5 1 -5 -13z"/>
<path d="M370 1895 c0 -9 5 -15 11 -13 6 2 11 8 11 13 0 5 -5 11 -11 13 -6 2
-11 -4 -11 -13z"/>
<path d="M712 1901 c-15 -9 -62 -72 -62 -83 0 -24 32 -2 55 38 27 46 29 59 7
45z"/>
<path d="M231 1863 c-1 -6 -4 -20 -7 -30 -5 -17 -5 -17 6 0 6 10 9 23 6 30 -3
9 -5 9 -5 0z"/>
<path d="M398 1839 c-28 -21 -37 -52 -17 -64 12 -8 49 23 49 42 0 7 7 13 16
13 19 0 13 24 -7 27 -8 2 -26 -7 -41 -18z"/>
<path d="M470 1825 c0 -8 9 -19 20 -25 15 -8 20 -8 20 3 0 14 -19 37 -32 37
-4 0 -8 -7 -8 -15z"/>
<path d="M576 1794 c-5 -12 -2 -15 10 -10 8 3 18 6 20 6 2 0 4 5 4 10 0 16
-27 11 -34 -6z"/>
<path d="M320 1761 c0 -45 15 -62 24 -28 10 39 7 67 -9 67 -11 0 -15 -11 -15
-39z"/>
<path d="M426 1783 c-11 -11 -6 -23 9 -23 8 0 15 4 15 9 0 13 -16 22 -24 14z"/>
<path d="M0 1699 l0 -72 47 7 c54 7 64 14 40 27 -26 15 -21 32 8 25 23 -6 25
-4 19 20 -6 24 -5 25 13 15 11 -5 23 -7 27 -4 3 3 6 -3 6 -15 0 -26 16 -37 24
-17 10 27 24 16 42 -35 15 -42 22 -50 43 -50 l26 0 -22 18 c-12 9 -28 34 -37
54 -30 75 -72 98 -178 98 l-58 0 0 -71z"/>
<path d="M393 1715 c-13 -28 -14 -37 -3 -50 20 -24 30 -18 30 20 0 40 15 47
24 11 4 -15 15 -25 31 -28 30 -6 32 6 5 50 -28 45 -64 44 -87 -3z"/>
<path d="M505 1610 c-3 -5 -3 -14 0 -20 3 -5 2 -10 -4 -10 -5 0 -13 5 -16 10
-11 17 -23 11 -18 -9 6 -24 51 -67 60 -58 4 4 2 12 -4 18 -12 12 -6 49 8 49 5
0 9 7 9 15 0 17 -25 20 -35 5z"/>
<path d="M396 1582 c-20 -60 -7 -86 35 -75 23 6 26 33 4 33 -8 0 -15 8 -15 18
0 9 -4 23 -9 31 -7 11 -10 9 -15 -7z"/>
<path d="M220 1576 c0 -8 6 -16 14 -19 10 -4 12 0 9 14 -6 22 -23 26 -23 5z"/>
<path d="M297 1554 c-10 -10 12 -44 28 -44 18 0 18 5 5 31 -11 19 -22 24 -33
13z"/>
<path d="M370 1496 c0 -8 8 -24 19 -37 l19 -23 0 29 c0 28 -12 44 -30 45 -5 0
-8 -6 -8 -14z"/>
<path d="M474 1495 c-9 -23 5 -38 23 -23 14 12 15 9 9 -23 -4 -25 -2 -40 7
-48 12 -9 14 -4 12 26 -2 21 -6 48 -10 61 -8 25 -33 30 -41 7z"/>
<path d="M1797 1481 c-9 -15 -14 -31 -11 -34 5 -4 40 8 82 29 1 1 0 9 -4 18
-10 26 -48 19 -67 -13z"/>
<path d="M131 1478 c-1 -32 8 -58 20 -58 13 0 10 20 -6 55 l-13 30 -1 -27z"/>
<path d="M184 1452 c-11 -27 -2 -57 20 -73 5 -4 6 -21 3 -38 -12 -59 14 -77
34 -24 6 17 6 30 -2 39 -6 7 -19 38 -28 68 -17 54 -17 55 -27 28z"/>
<path d="M310 1476 c0 -2 8 -10 18 -17 15 -13 16 -12 3 4 -13 16 -21 21 -21
13z"/>
<path d="M1870 1449 c0 -5 5 -7 10 -4 6 3 10 8 10 11 0 2 -4 4 -10 4 -5 0 -10
-5 -10 -11z"/>
<path d="M487 1375 c-4 -8 -2 -27 4 -42 12 -33 32 -18 27 23 -3 31 -22 43 -31
19z"/>
<path d="M438 1336 c-13 -28 -27 -45 -35 -42 -8 3 -13 -2 -13 -14 0 -44 50 -4
67 52 17 58 8 60 -19 4z"/>
<path d="M0 1315 c0 -25 1 -25 22 -11 45 32 54 20 31 -41 -8 -19 38 -16 70 5
l27 18 -22 21 c-14 13 -44 24 -75 28 -52 7 -53 7 -53 -20z"/>
<path d="M267 1303 c-11 -10 -8 -43 3 -43 6 0 10 11 10 25 0 26 -2 29 -13 18z"/>
<path d="M508 1293 c-22 -6 -23 -36 -3 -53 11 -9 13 -16 5 -24 -16 -16 -12
-24 15 -22 14 0 25 2 25 4 0 8 -27 48 -40 59 -13 11 -13 12 3 7 13 -5 17 -1
17 15 0 12 -1 20 -2 20 -2 -1 -11 -3 -20 -6z"/>
<path d="M320 1270 c0 -5 5 -10 10 -10 6 0 10 5 10 10 0 6 -4 10 -10 10 -5 0
-10 -4 -10 -10z"/>
<path d="M1955 1259 c-4 -6 -5 -13 -2 -16 7 -7 27 6 27 18 0 12 -17 12 -25 -2z"/>
<path d="M1890 1248 c0 -9 5 -20 11 -23 17 -11 20 0 4 21 -13 17 -14 17 -15 2z"/>
<path d="M130 1240 c-8 -5 -10 -10 -5 -10 6 0 16 -4 23 -8 25 -17 -30 -114
-60 -105 -3 1 -9 -16 -13 -38 -5 -28 -13 -43 -25 -46 -19 -5 -44 -59 -34 -74
11 -19 24 -8 24 22 0 20 4 29 13 27 19 -7 20 -34 1 -52 -20 -21 -11 -66 16
-73 16 -4 18 -14 17 -62 -2 -49 0 -56 17 -56 26 0 32 -23 11 -39 -14 -10 -16
-18 -9 -40 l10 -28 14 36 c7 20 17 36 21 36 11 0 -2 -73 -16 -90 -18 -22 -38
-89 -31 -106 5 -12 11 -9 31 14 14 17 25 35 25 41 0 6 11 11 25 11 16 0 25 -6
25 -16 0 -13 6 -15 28 -9 33 8 33 8 66 69 22 39 25 51 14 58 -10 6 -10 10 2
18 8 5 20 10 27 10 6 0 19 10 28 23 13 17 18 19 22 8 9 -24 56 -62 69 -57 19
7 56 -38 42 -52 -8 -8 -6 -10 10 -6 26 7 40 100 20 136 -13 23 -13 23 -16 -9
-2 -18 -6 -33 -10 -33 -15 1 -62 50 -62 65 0 14 -3 14 -30 0 -16 -8 -39 -15
-51 -15 -34 0 -5 28 43 40 21 6 47 14 56 17 14 5 15 3 5 -7 -9 -10 -9 -19 3
-43 l16 -29 20 32 c17 28 18 35 5 47 -8 8 -20 16 -28 17 -40 8 -68 36 -36 36
19 1 49 72 34 82 -17 11 -32 4 -29 -15 1 -8 -8 -27 -22 -42 -24 -25 -25 -25
-31 -6 -11 36 -25 23 -25 -24 0 -25 -5 -45 -11 -45 -16 0 -39 -26 -39 -44 0
-24 -20 -19 -42 10 -12 14 -32 30 -47 37 -25 10 -26 11 -3 14 16 3 22 11 22
29 0 13 4 24 8 24 16 0 42 -36 42 -57 0 -15 5 -20 18 -16 13 3 17 14 17 44 0
21 -3 39 -7 39 -5 0 -8 -4 -8 -10 0 -5 -7 -7 -15 -4 -8 4 -15 11 -15 16 0 6
-11 21 -24 33 -25 23 -25 23 -28 2 -3 -20 -4 -20 -30 4 -15 13 -31 38 -35 55
l-8 31 -23 -29 -23 -28 35 -21 c20 -11 36 -25 36 -30 0 -13 -14 -11 -28 3 -19
19 -41 -8 -36 -45 3 -18 0 -39 -6 -47 -18 -27 -32 9 -26 71 4 44 2 60 -10 70
-14 12 -14 15 6 31 12 10 26 15 31 12 13 -8 11 10 -2 23 -13 13 -4 63 11 63 5
0 10 -12 12 -27 5 -47 33 -35 33 14 0 23 6 48 13 55 6 6 12 7 12 2 0 -6 18
-18 41 -28 31 -14 44 -15 52 -7 9 9 9 14 1 19 -6 4 -14 20 -18 36 -4 15 -14
35 -21 43 -13 13 -15 12 -15 -5 0 -11 6 -23 13 -26 6 -3 3 -4 -8 -3 -11 2 -19
9 -17 17 2 7 -3 17 -10 21 -18 12 -80 11 -98 -1z m290 -375 c0 -8 -4 -15 -10
-15 -5 0 -10 7 -10 15 0 8 5 15 10 15 6 0 10 -7 10 -15z m-215 -45 c3 -5 1
-10 -4 -10 -6 0 -11 5 -11 10 0 6 2 10 4 10 3 0 8 -4 11 -10z m51 -97 c-10
-10 -19 5 -10 18 6 11 8 11 12 0 2 -7 1 -15 -2 -18z"/>
<path d="M300 1243 c1 -22 19 -34 43 -27 27 6 35 18 18 28 -5 4 -11 0 -14 -6
-4 -10 -7 -11 -18 0 -15 13 -29 16 -29 5z"/>
<path d="M363 1158 c2 -7 12 -14 23 -14 10 -1 23 -2 28 -3 6 -1 1 -8 -10 -17
-18 -15 -17 -15 15 -10 18 3 40 6 47 6 8 0 14 5 14 10 0 6 -7 10 -16 10 -8 0
-22 7 -30 15 -19 19 -78 21 -71 3z"/>
<path d="M2016 1144 c-8 -21 -8 -26 3 -20 5 3 11 -1 15 -9 3 -8 12 -15 21 -15
8 0 15 -8 16 -17 0 -10 3 -13 5 -6 5 12 -36 83 -47 83 -4 0 -10 -7 -13 -16z"/>
<path d="M615 1121 c-3 -5 -1 -12 5 -16 5 -3 10 1 10 9 0 18 -6 21 -15 7z"/>
<path d="M243 1095 c-37 -10 -43 -33 -14 -59 16 -15 19 -15 31 -1 7 9 19 14
26 11 7 -3 16 -1 19 4 4 6 11 10 17 10 7 0 9 -17 5 -48 -3 -26 -1 -55 4 -63 7
-12 9 -12 10 1 1 8 3 22 4 30 1 8 3 23 4 33 1 21 21 23 21 2 0 -17 16 -20 24
-6 7 11 92 9 102 -2 11 -11 46 -8 39 3 -3 6 -14 10 -23 10 -9 0 -24 15 -33 33
-14 29 -20 32 -69 35 -30 2 -49 6 -43 10 17 11 -88 8 -124 -3z m207 -35 c0 -5
-4 -10 -10 -10 -5 0 -10 5 -10 10 0 6 5 10 10 10 6 0 10 -4 10 -10z"/>
<path d="M501 1084 c14 -17 32 -19 27 -2 -2 6 -12 12 -22 14 -14 2 -15 0 -5
-12z"/>
<path d="M0 1065 c0 -8 5 -15 10 -15 6 0 10 7 10 15 0 8 -4 15 -10 15 -5 0
-10 -7 -10 -15z"/>
<path d="M607 1037 c-16 -11 -15 -15 12 -47 l30 -35 -6 40 c-7 50 -14 58 -36
42z"/>
<path d="M670 961 c0 -11 5 -23 10 -26 6 -4 10 5 10 19 0 14 -4 26 -10 26 -5
0 -10 -9 -10 -19z"/>
<path d="M507 931 c-17 -17 -17 -19 2 -42 23 -28 30 -24 38 25 6 41 -9 48 -40
17z"/>
<path d="M2061 937 c-16 -16 -13 -31 4 -17 8 6 19 9 25 5 5 -3 10 -2 10 3 0
15 -26 22 -39 9z"/>
<path d="M580 883 l0 -47 29 34 c27 32 28 36 13 48 -31 24 -42 14 -42 -35z"/>
<path d="M1970 914 c0 -8 5 -12 10 -9 6 4 8 11 5 16 -9 14 -15 11 -15 -7z"/>
<path d="M14 869 c-7 -8 -12 -51 -13 -96 0 -75 1 -83 18 -83 19 0 33 37 47
124 4 31 3 36 -15 36 -11 0 -21 7 -23 17 -2 14 -5 14 -14 2z"/>
<path d="M547 809 c4 -16 8 -17 14 -7 13 19 11 28 -5 28 -9 0 -12 -7 -9 -21z"/>
<path d="M347 655 c-21 -25 -35 -50 -32 -55 3 -6 0 -10 -8 -10 -8 0 -22 -9
-33 -21 -10 -11 -26 -18 -36 -16 -11 3 -18 0 -18 -8 0 -16 -27 -27 -35 -15 -9
15 -25 12 -25 -5 0 -8 6 -15 14 -15 20 0 30 -32 12 -42 -8 -5 -21 -22 -30 -39
-12 -25 -13 -31 -1 -35 7 -3 22 -1 34 5 17 9 20 8 23 -11 4 -25 28 -37 28 -13
0 9 13 21 30 26 17 6 30 15 30 19 0 4 9 6 19 3 17 -4 18 -8 8 -24 -9 -14 -9
-21 1 -31 6 -6 12 -22 12 -35 0 -15 5 -21 14 -17 22 8 26 -20 11 -77 -8 -31
-11 -57 -5 -63 10 -13 -11 -46 -28 -46 -12 0 -18 -20 -25 -87 l-5 -43 179 0
c177 0 179 0 184 23 26 116 28 105 -23 200 -26 48 -66 112 -90 142 -44 56 -68
63 -74 22 -2 -17 -10 -22 -33 -22 -16 0 -35 -3 -40 -7 -10 -6 -62 58 -54 66 9
10 59 -8 59 -20 0 -16 36 -19 45 -4 4 6 -8 33 -25 61 -18 27 -30 52 -27 56 3
3 27 -7 52 -21 l45 -27 0 27 c0 14 -13 43 -29 63 -16 20 -39 60 -51 89 -12 28
-25 52 -29 52 -4 0 -24 -20 -44 -45z m-112 -193 c-6 -4 -22 -18 -37 -31 -23
-20 -28 -21 -28 -8 0 9 12 23 28 31 29 16 53 21 37 8z m187 -224 c3 -25 -18
-78 -32 -78 -14 0 -21 18 -10 25 5 3 10 22 10 41 0 39 26 49 32 12z m-45 -110
c-3 -8 -6 -5 -6 6 -1 11 2 17 5 13 3 -3 4 -12 1 -19z m79 -34 c-4 -9 -9 -15
-11 -12 -3 3 -3 13 1 22 4 9 9 15 11 12 3 -3 3 -13 -1 -22z"/>
<path d="M25 671 c-3 -5 -1 -12 5 -16 5 -3 10 1 10 9 0 18 -6 21 -15 7z"/>
<path d="M430 670 c0 -21 31 -70 44 -70 9 0 12 -7 9 -20 -4 -13 0 -20 9 -20
25 0 27 11 11 44 -16 33 -73 85 -73 66z"/>
<path d="M2 594 c-1 -23 3 -34 12 -34 23 0 27 -28 5 -35 -10 -4 -19 -15 -19
-26 0 -11 5 -17 10 -14 6 3 10 2 10 -4 0 -17 49 -25 65 -11 23 19 18 42 -15
77 -17 18 -30 36 -30 40 0 5 -8 16 -18 24 -18 15 -19 14 -20 -17z"/>
<path d="M0 425 c0 -8 2 -15 4 -15 2 0 6 7 10 15 3 8 1 15 -4 15 -6 0 -10 -7
-10 -15z"/>
<path d="M59 389 c-13 -15 -32 -28 -41 -29 -20 0 -24 -30 -7 -47 8 -8 20 -8
35 -3 18 7 24 6 24 -5 0 -7 -5 -17 -10 -20 -12 -8 6 -35 22 -35 6 0 4 7 -3 16
-11 13 -10 17 4 25 21 12 22 33 2 49 -18 15 -20 40 -3 40 6 0 8 -3 5 -7 -4 -3
1 -12 11 -19 23 -18 37 -18 23 0 -8 10 -9 15 -1 18 16 5 2 35 -20 41 -11 3
-26 -6 -41 -24z"/>
<path d="M177 366 c-6 -15 1 -26 15 -26 4 0 8 9 8 20 0 23 -15 27 -23 6z"/>
<path d="M286 342 c-9 -15 6 -52 20 -52 16 0 16 5 8 38 -6 22 -19 29 -28 14z"/>
<path d="M175 310 c3 -5 10 -10 16 -10 5 0 9 5 9 10 0 6 -7 10 -16 10 -8 0
-12 -4 -9 -10z"/>
<path d="M255 290 c-3 -5 1 -10 9 -10 9 0 16 5 16 10 0 6 -4 10 -9 10 -6 0
-13 -4 -16 -10z"/>
<path d="M1837 241 c-9 -16 -17 -34 -17 -39 0 -6 -4 -22 -9 -35 l-10 -25 -57
29 c-63 32 -89 36 -97 15 -3 -7 -17 -16 -31 -20 -28 -7 -104 -60 -178 -124
l-49 -42 66 0 c64 0 67 1 107 41 51 50 88 67 100 44 7 -12 13 -13 29 -4 11 6
43 9 70 8 27 -2 53 1 58 7 10 11 71 152 71 165 0 21 -37 7 -53 -20z"/>
<path d="M12 210 c-6 -11 -12 -40 -12 -65 0 -41 2 -45 25 -45 25 0 37 -20 13
-20 -7 -1 1 -7 17 -14 39 -18 63 0 46 33 -13 23 -47 45 -60 37 -5 -3 -14 1
-20 8 -10 12 -8 13 8 9 12 -3 21 -1 21 5 0 6 7 12 16 14 12 2 9 9 -13 30 -28
27 -29 27 -41 8z"/>
<path d="M90 219 c0 -5 5 -7 11 -3 6 3 15 0 20 -7 4 -7 11 -10 14 -7 11 11 -5
28 -26 28 -10 0 -19 -5 -19 -11z"/>
<path d="M123 183 c-16 -6 -17 -33 -3 -33 11 0 26 28 19 34 -2 2 -10 1 -16 -1z"/>
<path d="M0 34 c0 -33 1 -34 40 -34 55 0 55 29 0 52 l-40 17 0 -35z"/>
</g>
</svg>
