<?xml version="1.0" encoding="UTF-8"?>
<svg version="1.1" xmlns="http://www.w3.org/2000/svg" width="252" height="223">
<path d="M0 0 C0.94140585 1.0619058 1.86052139 2.1442348 2.75 3.25 C5.62289034 6.37968501 8.22997524 6.47266125 12.375 6.875 C18.49259503 7.49977566 23.15004935 9.09038101 28.625 11.875 C29.29966309 12.21515137 29.97432617 12.55530273 30.66943359 12.90576172 C33.54485046 14.42958006 35.87040188 15.86322855 38.1171875 18.234375 C40.63107203 20.59179369 42.10382423 20.40238851 45.5 20.375 C57.21350404 21.07155546 65.48005569 27.30289742 73.171875 35.65234375 C80.08622115 43.58695468 90 56.2546706 90 67 C90.66 67.04125 91.32 67.0825 92 67.125 C99.15888936 69.2130094 103.85692678 74.38076476 107.6875 80.57421875 C110.53334596 85.8339519 112.68802932 91.19746843 113.875 97.0625 C114.60777804 100.31785022 115.87551441 102.47670591 117.8125 105.1875 C128.95668167 121.12722194 129.3497169 140.86505879 126.46875 159.421875 C124.30050119 169.38549453 119.86854865 178.3832659 112 185 C111.34 185 110.68 185 110 185 C109.814375 185.66 109.62875 186.32 109.4375 187 C106.64888555 192.81971711 101.97850927 198.34288477 96 201 C95.01 201 94.02 201 93 201 C92.71125 201.61875 92.4225 202.2375 92.125 202.875 C91 205 91 205 89 207 C83.17673971 207.47117666 78.25880948 205.66583992 73.53125 202.3828125 C72 201 72 201 71 198.625 C71 197.75875 71 196.8925 71 196 C70.9175 194.824375 70.835 193.64875 70.75 192.4375 C71.02338489 188.67845779 71.67225685 187.79329179 74 185 C74.71433121 182.35065178 74.71433121 182.35065178 75 180 C74.236875 179.71125 73.47375 179.4225 72.6875 179.125 C70 178 70 178 67 176 C66.29805007 177.80252869 66.29805007 177.80252869 66 180 C66.33 180.61875 66.66 181.2375 67 181.875 C68.4425917 184.94050736 67.95254252 186.80217868 67 190 C65.25 191.9375 65.25 191.9375 63 193 C60.25 192.6875 60.25 192.6875 58 192 C57.34 193.32 56.68 194.64 56 196 C52.43001875 196.08113594 49.44172871 195.86043218 46 195 C45.01 195.103125 44.02 195.20625 43 195.3125 C40 195 40 195 37.6875 192.3125 C36.2051601 189.40272167 35.37808607 187.21373158 35 184 C33.865625 183.87625 32.73125 183.7525 31.5625 183.625 C30.386875 183.41875 29.21125 183.2125 28 183 C26.54852097 180.09704195 26.62760975 178.22738221 27 175 C28.62126675 172.96302383 30.28859531 170.96185416 32 169 C33.33333333 166.66666667 33.33333333 166.66666667 33 164 C31.90913331 162.07602416 30.66817333 160.2903635 29.4140625 158.46875 C26.67708242 153.69037594 25.44210112 148.28501864 24 143 C23.731875 143.6290625 23.46375 144.258125 23.1875 144.90625 C20.20814322 151.41379245 16.71075078 156.58714713 11 161 C9.68708984 161.48146484 9.68708984 161.48146484 8.34765625 161.97265625 C5.88455477 162.76512257 5.88455477 162.76512257 4.99609375 164.83984375 C4.81175781 165.53207031 4.62742187 166.22429687 4.4375 166.9375 C3.58020416 169.53780618 3.01775009 170.97844632 1.25 173.125 C-2.21852855 174.47387221 -4.54615689 173.17079427 -8 172 C-9.258125 171.87625 -10.51625 171.7525 -11.8125 171.625 C-12.864375 171.41875 -13.91625 171.2125 -15 171 C-16.25 169.125 -16.25 169.125 -17 167 C-17.53625 166.566875 -18.0725 166.13375 -18.625 165.6875 C-20 164 -20 164 -20.4375 160.6875 C-19.93253029 156.43132675 -18.52688569 154.39550264 -16 151 C-16 150.34 -16 149.68 -16 149 C-16.66 149.33 -17.32 149.66 -18 150 C-20.9375 150.25 -20.9375 150.25 -24 150 C-25 149 -26 148 -27 147 C-28.99958364 146.95919217 -31.00045254 146.95745644 -33 147 C-35 145 -35 145 -35.125 142.375 C-35.08375 141.59125 -35.0425 140.8075 -35 140 C-35.78375 139.87625 -36.5675 139.7525 -37.375 139.625 C-40 139 -40 139 -42 137 C-42.48602588 132.70677141 -42.46241608 130.67917361 -40 127.0625 C-39.34 126.381875 -38.68 125.70125 -38 125 C-38.845625 124.278125 -39.69125 123.55625 -40.5625 122.8125 C-41.366875 121.884375 -42.17125 120.95625 -43 120 C-42.65234375 117.32421875 -42.65234375 117.32421875 -42 115 C-44.56364483 114.89154969 -47.12266279 114.81250256 -49.6875 114.75 C-50.40873047 114.71648437 -51.12996094 114.68296875 -51.87304688 114.6484375 C-56.96828336 114.55537382 -59.14533795 115.43599469 -63 119 C-66.32111222 119.46495571 -68.09666177 119.63233676 -70.875 117.6875 C-72 116 -72 116 -72 113 C-72.928125 112.814375 -72.928125 112.814375 -73.875 112.625 C-76 112 -76 112 -78 110 C-78.04346799 108.00047242 -78.039992 105.99960012 -78 104 C-78.268125 103.34 -78.53625 102.68 -78.8125 102 C-79 100 -79 100 -77.0625 96.9375 C-73.90901835 93.4187846 -70.45386901 92.35880749 -66 91 C-65.9071875 89.14375 -65.9071875 89.14375 -65.8125 87.25 C-65.38945612 83.89544081 -65.08994191 83.10243384 -62.75 80.4375 C-60 79 -60 79 -57.3125 79.1875 C-55 80 -55 80 -53 81 C-53.54953331 77.32051608 -54.76704598 76.08898228 -57.6875 73.875 C-63.64332872 68.89937923 -66.8208138 62.56040035 -70.0625 55.625 C-71.37194121 52.89745027 -72.04571182 51.96343054 -74.5 50 C-79.26021525 46.1918278 -81.07033288 41.05530415 -81.9375 35.125 C-82.49527235 26.01936636 -78.9617185 17.79298208 -73 11 C-68.09003002 6.68181548 -63.67181643 4.75332096 -57.30859375 3.68359375 C-53.52344394 2.56277951 -50.74659759 0.08974586 -47.6171875 -2.25 C-32.54394055 -12.32882781 -14.19567935 -10.53883172 0 0 Z M-37 112 C-34.69 112 -32.38 112 -30 112 C-29.67 111.01 -29.34 110.02 -29 109 C-33.26826873 109 -33.93882432 109.37613513 -37 112 Z " fill="#FAFAFA" transform="translate(103,14)"/>
<path d="M0 0 C0.94140585 1.0619058 1.86052139 2.1442348 2.75 3.25 C5.62289034 6.37968501 8.22997524 6.47266125 12.375 6.875 C18.49259503 7.49977566 23.15004935 9.09038101 28.625 11.875 C29.29966309 12.21515137 29.97432617 12.55530273 30.66943359 12.90576172 C33.54485046 14.42958006 35.87040188 15.86322855 38.1171875 18.234375 C40.63107203 20.59179369 42.10382423 20.40238851 45.5 20.375 C57.21350404 21.07155546 65.48005569 27.30289742 73.171875 35.65234375 C80.08622115 43.58695468 90 56.2546706 90 67 C90.66 67.04125 91.32 67.0825 92 67.125 C99.15888936 69.2130094 103.85692678 74.38076476 107.6875 80.57421875 C110.53334596 85.8339519 112.68802932 91.19746843 113.875 97.0625 C114.60777804 100.31785022 115.87551441 102.47670591 117.8125 105.1875 C128.95668167 121.12722194 129.3497169 140.86505879 126.46875 159.421875 C124.30050119 169.38549453 119.86854865 178.3832659 112 185 C111.34 185 110.68 185 110 185 C109.814375 185.66 109.62875 186.32 109.4375 187 C106.64888555 192.81971711 101.97850927 198.34288477 96 201 C95.01 201 94.02 201 93 201 C92.71125 201.61875 92.4225 202.2375 92.125 202.875 C91 205 91 205 89 207 C83.17673971 207.47117666 78.25880948 205.66583992 73.53125 202.3828125 C72 201 72 201 71 198.625 C71 197.75875 71 196.8925 71 196 C70.9175 194.824375 70.835 193.64875 70.75 192.4375 C71.02338489 188.67845779 71.67225685 187.79329179 74 185 C74.71433121 182.35065178 74.71433121 182.35065178 75 180 C74.236875 179.71125 73.47375 179.4225 72.6875 179.125 C70 178 70 178 67 176 C66.29805007 177.80252869 66.29805007 177.80252869 66 180 C66.33 180.61875 66.66 181.2375 67 181.875 C68.4425917 184.94050736 67.95254252 186.80217868 67 190 C65.25 191.9375 65.25 191.9375 63 193 C60.25 192.6875 60.25 192.6875 58 192 C57.34 193.32 56.68 194.64 56 196 C52.43001875 196.08113594 49.44172871 195.86043218 46 195 C45.01 195.103125 44.02 195.20625 43 195.3125 C40 195 40 195 37.6875 192.3125 C36.2051601 189.40272167 35.37808607 187.21373158 35 184 C33.865625 183.87625 32.73125 183.7525 31.5625 183.625 C30.386875 183.41875 29.21125 183.2125 28 183 C26.54852097 180.09704195 26.62760975 178.22738221 27 175 C28.62126675 172.96302383 30.28859531 170.96185416 32 169 C33.33333333 166.66666667 33.33333333 166.66666667 33 164 C31.90913331 162.07602416 30.66817333 160.2903635 29.4140625 158.46875 C26.67708242 153.69037594 25.44210112 148.28501864 24 143 C23.731875 143.6290625 23.46375 144.258125 23.1875 144.90625 C20.20814322 151.41379245 16.71075078 156.58714713 11 161 C9.68708984 161.48146484 9.68708984 161.48146484 8.34765625 161.97265625 C5.88455477 162.76512257 5.88455477 162.76512257 4.99609375 164.83984375 C4.81175781 165.53207031 4.62742187 166.22429687 4.4375 166.9375 C3.58020416 169.53780618 3.01775009 170.97844632 1.25 173.125 C-2.21852855 174.47387221 -4.54615689 173.17079427 -8 172 C-9.258125 171.87625 -10.51625 171.7525 -11.8125 171.625 C-12.864375 171.41875 -13.91625 171.2125 -15 171 C-16.25 169.125 -16.25 169.125 -17 167 C-17.53625 166.566875 -18.0725 166.13375 -18.625 165.6875 C-20 164 -20 164 -20.4375 160.6875 C-19.93253029 156.43132675 -18.52688569 154.39550264 -16 151 C-16 150.34 -16 149.68 -16 149 C-16.66 149.33 -17.32 149.66 -18 150 C-20.9375 150.25 -20.9375 150.25 -24 150 C-25 149 -26 148 -27 147 C-28.99958364 146.95919217 -31.00045254 146.95745644 -33 147 C-35 145 -35 145 -35.125 142.375 C-35.08375 141.59125 -35.0425 140.8075 -35 140 C-35.78375 139.87625 -36.5675 139.7525 -37.375 139.625 C-40 139 -40 139 -42 137 C-42.48602588 132.70677141 -42.46241608 130.67917361 -40 127.0625 C-39.34 126.381875 -38.68 125.70125 -38 125 C-38.845625 124.278125 -39.69125 123.55625 -40.5625 122.8125 C-41.366875 121.884375 -42.17125 120.95625 -43 120 C-42.65234375 117.32421875 -42.65234375 117.32421875 -42 115 C-44.56364483 114.89154969 -47.12266279 114.81250256 -49.6875 114.75 C-50.40873047 114.71648437 -51.12996094 114.68296875 -51.87304688 114.6484375 C-56.96828336 114.55537382 -59.14533795 115.43599469 -63 119 C-66.32111222 119.46495571 -68.09666177 119.63233676 -70.875 117.6875 C-72 116 -72 116 -72 113 C-72.928125 112.814375 -72.928125 112.814375 -73.875 112.625 C-76 112 -76 112 -78 110 C-78.04346799 108.00047242 -78.039992 105.99960012 -78 104 C-78.268125 103.34 -78.53625 102.68 -78.8125 102 C-79 100 -79 100 -77.0625 96.9375 C-73.90901835 93.4187846 -70.45386901 92.35880749 -66 91 C-65.9071875 89.14375 -65.9071875 89.14375 -65.8125 87.25 C-65.38945612 83.89544081 -65.08994191 83.10243384 -62.75 80.4375 C-60 79 -60 79 -57.3125 79.1875 C-55 80 -55 80 -53 81 C-53.54953331 77.32051608 -54.76704598 76.08898228 -57.6875 73.875 C-63.64332872 68.89937923 -66.8208138 62.56040035 -70.0625 55.625 C-71.37194121 52.89745027 -72.04571182 51.96343054 -74.5 50 C-79.26021525 46.1918278 -81.07033288 41.05530415 -81.9375 35.125 C-82.49527235 26.01936636 -78.9617185 17.79298208 -73 11 C-68.09003002 6.68181548 -63.67181643 4.75332096 -57.30859375 3.68359375 C-53.52344394 2.56277951 -50.74659759 0.08974586 -47.6171875 -2.25 C-32.54394055 -12.32882781 -14.19567935 -10.53883172 0 0 Z M-51 7 C-51 7.99 -51 8.98 -51 10 C-51.33 9.67 -51.66 9.34 -52 9 C-56.52190975 8.41929159 -60.06672575 8.54251262 -64.1875 10.5625 C-70.54832489 16.07521491 -74.9754362 21.51109594 -76.31640625 30.00390625 C-76.64456543 35.41323986 -75.03122656 39.56243635 -72 44 C-67.131705 49.46198951 -62.10972001 50.15239993 -55 51 C-59.455 51.495 -59.455 51.495 -64 52 C-61.84525801 62.34276155 -54.61789427 69.58372803 -46.015625 75.32421875 C-38.41274641 79.39718942 -29.17645735 79.14813693 -20.91796875 77.31640625 C-19.24932675 76.80579691 -17.59112068 76.2579627 -15.953125 75.65625 C-14 75 -14 75 -11 75 C-15.34347963 77.450168 -19.28882682 78.61863788 -24.14453125 79.47265625 C-25.06298828 79.73369141 -25.06298828 79.73369141 -26 80 C-26.33 80.66 -26.66 81.32 -27 82 C-40.6332574 78.92482916 -40.6332574 78.92482916 -47 77 C-46.4661638 85.18548844 -43.27392092 92.29178711 -37.1875 97.875 C-32.72704459 101.44843302 -27.85736495 105 -22 105 C-21.79246094 104.31035156 -21.58492187 103.62070313 -21.37109375 102.91015625 C-17.96878646 92.53240725 -12.47371732 85.74438726 -4 79 C-4.60328125 79.58007812 -5.2065625 80.16015625 -5.828125 80.7578125 C-14.44470985 89.17982931 -20.70633245 97.85435342 -21.109375 110.40625 C-21.05523437 111.69015625 -21.05523437 111.69015625 -21 113 C-21.763125 113.0825 -22.52625 113.165 -23.3125 113.25 C-26.05719772 113.79406349 -26.05719772 113.79406349 -27.8125 115.6875 C-29.43157131 118.84042834 -29.54248742 120.47383176 -29 124 C-27.09354476 128.2935979 -24.95527043 131.3146973 -21.125 134.0625 C-16.59639941 135.42108018 -13.19319131 134.67014179 -8.75 133.3125 C-6.10355459 131.32766594 -5.21248293 129.03120732 -4 126 C-4 124.68 -4 123.36 -4 122 C-3.34 122 -2.68 122 -2 122 C-2 122.99 -2 123.98 -2 125 C8.24982844 120.32861801 16.70530414 110.07176756 23 101 C23.66 100.67 24.32 100.34 25 100 C24.01 102.31 23.02 104.62 22 107 C27.23272633 105.36041242 32.15196636 103.61047965 37 101 C37 101.66 37 102.32 37 103 C34.48077631 104.01130127 31.95960777 105.01571491 29.4296875 106 C28.16511719 106.495 28.16511719 106.495 26.875 107 C25.60269531 107.495 25.60269531 107.495 24.3046875 108 C21.79712286 109.00693353 21.79712286 109.00693353 19 111 C25.19518473 110.58411954 30.26689311 109.39748106 36 107 C36 107.66 36 108.32 36 109 C24.40264835 112.07329819 24.40264835 112.07329819 19.6875 112.25 C15.11312673 113.180381 13.45978238 114.9851772 10.4453125 118.40625 C9 120 9 120 7 121 C7.47840607 125.30565461 9.79189806 127.26970047 13 130 C18.15782742 133.34123412 21.77398845 134.20253291 28 134 C28.67099984 131.39688008 29.33695338 128.79264602 30 126.1875 C30.19078125 125.44951172 30.3815625 124.71152344 30.578125 123.95117188 C31.35262914 120.89464659 32 118.16626522 32 115 C32.66 115 33.32 115 34 115 C33.71125 115.58523437 33.4225 116.17046875 33.125 116.7734375 C28.38564855 127.73318772 28.11111506 140.05066429 32.25 151.25 C33.68933053 154.53989836 35.17487774 157.41907345 37.375 160.25 C39.51155873 163.86571477 38.78105822 165.87615069 38.11328125 169.8828125 C37.79381106 172.25740296 37.79381106 172.25740296 39.6875 174.9375 C43.80458021 178.60949046 47.23444699 179.55087691 52.67578125 179.4609375 C56.73712077 178.65549538 59.34105078 176.05462619 62 173 C63.58493084 169.83013832 63.2940042 166.45967739 63 163 C62.13734032 160.59442147 62.13734032 160.59442147 61 159 C61.66 159 62.32 159 63 159 C64.56575099 154.14833907 65.24108411 150.12196279 65.1953125 144.97265625 C65.18886719 143.68681641 65.18242187 142.40097656 65.17578125 141.07617188 C65.15907601 139.73827846 65.14214619 138.40038783 65.125 137.0625 C65.11495322 135.69727217 65.10583036 134.3320372 65.09765625 132.96679688 C65.07417605 129.64434801 65.04133359 126.32226679 65 123 C65.6172998 122.88446777 66.23459961 122.76893555 66.87060547 122.64990234 C70.15281528 121.64815475 71.2116392 119.39682686 73.125 116.625 C74.14980469 115.15933594 74.14980469 115.15933594 75.1953125 113.6640625 C78.16582861 109.6997849 78.16582861 109.6997849 79 105 C79.66 105 80.32 105 81 105 C79.99110501 106.83993008 78.9671153 108.67158426 77.9375 110.5 C77.36902344 111.5209375 76.80054688 112.541875 76.21484375 113.59375 C75.02846883 115.61456651 73.90892047 117.08722201 72.20727539 118.71679688 C67.96121012 122.78578578 66.52896851 125.51871748 66.31640625 131.46875 C66.36251053 133.81348188 66.44538704 136.15774089 66.5625 138.5 C66.60987305 140.30597656 66.60987305 140.30597656 66.65820312 142.1484375 C66.74023317 145.10151915 66.85495914 148.04945453 67 151 C68.98 151 70.96 151 73 151 C73.33 147.04 73.66 143.08 74 139 C74.1953125 148.1796875 74.1953125 148.1796875 74 151 C71.53721199 153.46278801 69.29323018 153.99771255 66 155 C65.18681641 158.39623736 64.70473513 161.50772926 65 165 C66.87812491 167.94203382 69.24001915 169.89938033 72 172 C72.7425 172.639375 73.485 173.27875 74.25 173.9375 C76.08617835 175.25948907 76.08617835 175.25948907 79 175 C79.33 174.01 79.66 173.02 80 172 C80.02578125 172.845625 80.0515625 173.69125 80.078125 174.5625 C80.43679622 181.73592449 81.0969104 186.9157721 85 193 C88.56479845 195.3765323 89.79576285 195.565955 94 195 C101.4691282 191.6034428 104.47638797 184.91785951 107.3125 177.625 C108.45124579 171.62070402 109.48904871 165.23357307 106 160 C103.75171948 164.49656104 103.83317728 168.07872966 104 173 C102.02 172.67 100.04 172.34 98 172 C98 170.02 98 168.04 98 166 C98.66 166 99.32 166 100 166 C100.33 167.65 100.66 169.3 101 171 C101.66 171 102.32 171 103 171 C103 169.02 103 167.04 103 165 C102.01 164.67 101.02 164.34 100 164 C101.485 162.700625 101.485 162.700625 103 161.375 C106.9096843 156.79983752 106.65834558 152.45533324 106.3984375 146.64453125 C105.25466824 136.18240654 102.92303972 127.28063109 95 120 C100.93594592 122.37437837 102.57616616 127.50253856 105 133 C107.31014093 132.11577832 107.31014093 132.11577832 108.1875 129.1875 C108.96421451 126.14038924 109.10096399 124.86250637 108 122 C108 122.99 108 123.98 108 125 C107.34 125 106.68 125 106 125 C106.32097656 123.72769531 106.64195312 122.45539063 106.97265625 121.14453125 C109.71849811 108.7043354 109.99407829 94.00822348 103 83 C99.70073007 78.4005622 96.23870489 74.39483652 91 72 C90.34 72 89.68 72 89 72 C89.16371094 73.26714844 89.32742187 74.53429687 89.49609375 75.83984375 C90.07978908 81.09310173 90.11285949 86.28250085 90.0625 91.5625 C90.05798828 92.47580078 90.05347656 93.38910156 90.04882812 94.33007812 C90.0371874 96.55345738 90.02083851 98.77669121 90 101 C89.34 101 88.68 101 88 101 C88.16371094 100.47921875 88.32742187 99.9584375 88.49609375 99.421875 C89.14058659 96.3243125 89.09411589 93.41158906 89.0625 90.25 C89.05347656 89.07953125 89.04445312 87.9090625 89.03515625 86.703125 C89.02355469 85.81109375 89.01195312 84.9190625 89 84 C88.67 84 88.34 84 88 84 C87.67 85.32 87.34 86.64 87 88 C87.04640625 87.14019531 87.0928125 86.28039062 87.140625 85.39453125 C87.71907282 66.45036504 79.71649251 50.75053256 67 37 C61.87725581 31.80959692 56.03810428 26.47944518 48.49609375 25.76171875 C46.31330851 25.75147093 44.17452059 25.81878995 42 26 C42.825 26.86625 43.65 27.7325 44.5 28.625 C52.03396824 37.46223763 56.90425665 47.879764 60 59 C59.34 59 58.68 59 58 59 C57.896875 58.071875 57.79375 57.14375 57.6875 56.1875 C56.9929808 52.96745642 56.52259061 51.97420135 54 50 C53.01 50.495 53.01 50.495 52 51 C51.90074219 50.14277344 51.80148438 49.28554688 51.69921875 48.40234375 C49.09563221 35.73349526 40.179271 25.97023926 29.93359375 18.796875 C22.69329806 14.36207338 15.40125252 12.5509018 7 12 C8.06065298 15.00518345 9.19152429 17.26697326 11.0625 19.875 C13.22055321 23.35573099 13.67639452 25.95493144 14 30 C13.5978125 28.87464844 13.5978125 28.87464844 13.1875 27.7265625 C8.28029255 14.90971147 0.63652327 5.98260958 -11.25 -0.875 C-24.78473899 -6.41193868 -40.47805644 -2.85033014 -51 7 Z M-37 112 C-34.69 112 -32.38 112 -30 112 C-29.67 111.01 -29.34 110.02 -29 109 C-33.26826873 109 -33.93882432 109.37613513 -37 112 Z " fill="#090909" transform="translate(103,14)"/>
<path d="M0 0 C0.33 0 0.66 0 1 0 C1.03867188 1.37671875 1.03867188 1.37671875 1.078125 2.78125 C1.48489 11.58216536 1.98368399 18.27056371 8.625 24.4375 C12.73813754 27.14351154 15.81458455 27.12018948 20.625 27.0625 C21.33140625 27.05798828 22.0378125 27.05347656 22.765625 27.04882812 C24.51045275 27.03703875 26.255237 27.01910324 28 27 C28 28.98 28 30.96 28 33 C27.34 33 26.68 33 26 33 C25.67 31.35 25.34 29.7 25 28 C24.34 28 23.68 28 23 28 C23 29.98 23 31.96 23 34 C25.97 34.495 25.97 34.495 29 35 C28.96519531 34.31292969 28.93039063 33.62585938 28.89453125 32.91796875 C28.86746094 32.01691406 28.84039062 31.11585938 28.8125 30.1875 C28.76029297 28.84751953 28.76029297 28.84751953 28.70703125 27.48046875 C29.04918998 24.58352485 29.75393573 23.77444972 32 22 C34.60246263 29.80738788 33.29116493 38.58259844 30 46 C27.22889737 50.68220789 24.18459782 54.92616087 19 57 C16 57.5 16 57.5 13 57 C8.24564866 53.21812962 6.32844756 49.64307328 5.5859375 43.66796875 C5.51632813 42.51941406 5.44671875 41.37085938 5.375 40.1875 C5.26285156 38.44533203 5.26285156 38.44533203 5.1484375 36.66796875 C5.09945312 35.78753906 5.05046875 34.90710938 5 34 C4.67 34.99 4.34 35.98 4 37 C-1.93960777 36.09584425 -6.46635212 31.60672858 -10 27 C-10.54411926 23.39583391 -10.05678613 20.46712709 -9 17 C-7.865625 16.525625 -6.73125 16.05125 -5.5625 15.5625 C-2.24259834 14.36377917 -2.24259834 14.36377917 -1 13 C-0.76518307 10.81707226 -0.58636677 8.62796826 -0.4375 6.4375 C-0.35371094 5.23996094 -0.26992187 4.04242188 -0.18359375 2.80859375 C-0.12300781 1.88175781 -0.06242188 0.95492187 0 0 Z " fill="#F4F4F4" transform="translate(178,152)"/>
<path d="M0 0 C1.67542976 0.28604898 3.34385343 0.61781233 5 1 C5 2.65 5 4.3 5 6 C5.845625 5.94199219 6.69125 5.88398438 7.5625 5.82421875 C13.89289703 5.5724416 19.0591362 5.36801122 24.28515625 9.24609375 C30.48767987 15.58990492 34.0756344 23.56324111 34.125 32.375 C34.09316134 33.91690094 34.05482724 35.45874525 34 37 C33.34 37 32.68 37 32 37 C31.88785156 35.65808594 31.88785156 35.65808594 31.7734375 34.2890625 C30.69953902 24.41340788 28.46393284 17.46393284 21.375 10.375 C16.20266327 8.2677517 11.49391286 8.05550842 6 9 C-1.27896468 12.33324758 -4.51381204 18.06160192 -7.25 25.3125 C-8.96356986 33.73755182 -8.51666398 40.53834904 -4 48 C-1.89719366 50.35659368 -1.89719366 50.35659368 0 52 C0 52.66 0 53.32 0 54 C-3.67591895 52.9789114 -4.9339798 52.08564783 -7.3125 49 C-9 46 -9 46 -9 44 C-10.2684375 44.495 -10.2684375 44.495 -11.5625 45 C-15.45064363 46.13109633 -17.97255359 46.55550985 -22 46 C-26.94975836 43.26941374 -30.49426743 40.11681125 -33 35 C-33.8797969 30.05540502 -34.02333718 25.14218583 -31.828125 20.546875 C-29.1640683 16.83916723 -26.31843373 13.68524243 -22 12 C-16.75042516 11.42731911 -13.50079951 12.27858634 -9 15 C-8.34 15.66 -7.68 16.32 -7 17 C-6.27683594 16.15115234 -6.27683594 16.15115234 -5.5390625 15.28515625 C-4.90742187 14.55167969 -4.27578125 13.81820312 -3.625 13.0625 C-2.99851562 12.33160156 -2.37203125 11.60070312 -1.7265625 10.84765625 C0 9 0 9 2 8 C1.01 7.67 0.02 7.34 -1 7 C-1.04254356 5.00045254 -1.04080783 2.99958364 -1 1 C-0.67 0.67 -0.34 0.34 0 0 Z " fill="#F5F5F5" transform="translate(76,20)"/>
<path d="M0 0 C3.79480342 1.26493447 5.43879574 2.95424358 8 6 C8.4375 8.6875 8.4375 8.6875 8 11 C5.24072656 13.75927344 2.78845948 13.51783243 -1 14 C-1.33 14.33 -1.66 14.66 -2 15 C-1.34 15.66 -0.68 16.32 0 17 C-1.216875 17.2475 -2.43375 17.495 -3.6875 17.75 C-8.62187962 18.99667188 -11.63520916 21.0786925 -14.609375 25.265625 C-17.00964304 29.98525317 -16.65808573 34.83332694 -16 40 C-14.93419316 42.4676789 -13.76340271 43.91597861 -12 46 C-11.67 46.99 -11.34 47.98 -11 49 C-17.64453639 49.54241113 -21.55597579 48.94958619 -27 45 C-31.04061278 40.74097572 -32.78229737 37.14074253 -33.375 31.3125 C-33.11539246 23.21885311 -29.56345805 16.84181488 -23.78125 11.375 C-20.28641616 8.67723353 -17.73760142 7.74334409 -13.3125 7.875 C-12.52488281 7.89304687 -11.73726562 7.91109375 -10.92578125 7.9296875 C-10.29027344 7.95289063 -9.65476562 7.97609375 -9 8 C-8.67 8 -8.34 8 -8 8 C-7.79375 7.4225 -7.5875 6.845 -7.375 6.25 C-5.46297304 3.12122861 -3.18080599 1.75268902 0 0 Z " fill="#F7F7F7" transform="translate(60,15)"/>
<path d="M0 0 C6.68857339 5.25530767 8.70123899 14.95226374 10 23 C10.28716115 26.58849369 10.33449592 30.15115274 10.3125 33.75 C10.30686035 34.71719971 10.3012207 35.68439941 10.29541016 36.6809082 C10.09479769 48.5458443 8.01624641 59.15323853 1 69 C-1.19140625 70.8046875 -1.19140625 70.8046875 -3 72 C-2.98839844 70.73542969 -2.97679687 69.47085938 -2.96484375 68.16796875 C-2.95546434 66.50781398 -2.9463643 64.84765761 -2.9375 63.1875 C-2.92912109 62.35412109 -2.92074219 61.52074219 -2.91210938 60.66210938 C-2.90888672 59.85966797 -2.90566406 59.05722656 -2.90234375 58.23046875 C-2.89448853 57.12288208 -2.89448853 57.12288208 -2.88647461 55.99291992 C-2.92476787 53.78942591 -2.92476787 53.78942591 -4 51 C-4.67371706 41.8882529 -4.33366466 34.22235482 0 26 C-1.41791563 28.93446886 -2.98332607 31.43332409 -5 34 C-6.37700974 28.74232646 -5.40842028 26.72763981 -3 22 C-1.1871008 14.7945917 -0.54333621 7.39223207 0 0 Z " fill="#F3F3F3" transform="translate(215,121)"/>
<path d="M0 0 C2 1.5 2 1.5 4.3125 3.875 C7.36954755 6.86095342 10.23990508 8.50936151 14 10.5 C12.87657583 17.33823407 9.79446445 23.13886256 5.625 28.625 C3 30.5 3 30.5 -0.5 31.125 C-4.83775907 30.35040017 -6.31182523 28.92131335 -9 25.5 C-9 24.84 -9 24.18 -9 23.5 C-8.01 23.17 -7.02 22.84 -6 22.5 C-6.41106221 19.6225645 -6.8290522 18.65022686 -9.0625 16.6875 C-11 14.5 -11 14.5 -11.5 11.0625 C-10.76731705 5.84213399 -8.5686752 3.71572328 -4.5 0.5625 C-2 -0.5 -2 -0.5 0 0 Z " fill="#F7F7F7" transform="translate(108,139.5)"/>
<path d="M0 0 C0.33 0 0.66 0 1 0 C1.03867188 1.37671875 1.03867188 1.37671875 1.078125 2.78125 C1.48489 11.58216536 1.98368399 18.27056371 8.625 24.4375 C12.73813754 27.14351154 15.81458455 27.12018948 20.625 27.0625 C21.33140625 27.05798828 22.0378125 27.05347656 22.765625 27.04882812 C24.51045275 27.03703875 26.255237 27.01910324 28 27 C28 28.98 28 30.96 28 33 C27.34 33 26.68 33 26 33 C25.67 31.35 25.34 29.7 25 28 C24.34 28 23.68 28 23 28 C23.08378906 28.62648437 23.16757813 29.25296875 23.25390625 29.8984375 C23.35574219 30.71570313 23.45757812 31.53296875 23.5625 32.375 C23.71912109 33.59316406 23.71912109 33.59316406 23.87890625 34.8359375 C24 37 24 37 23 39 C21.72125 38.896875 20.4425 38.79375 19.125 38.6875 C18.04605469 38.60048828 18.04605469 38.60048828 16.9453125 38.51171875 C15 38 15 38 13 35 C11.68 35.66 10.36 36.32 9 37 C9 34.69 9 32.38 9 30 C8.01 32.475 8.01 32.475 7 35 C6.34 34.67 5.68 34.34 5 34 C4.67 34.99 4.34 35.98 4 37 C-1.93960777 36.09584425 -6.46635212 31.60672858 -10 27 C-10.54411926 23.39583391 -10.05678613 20.46712709 -9 17 C-7.865625 16.525625 -6.73125 16.05125 -5.5625 15.5625 C-2.24259834 14.36377917 -2.24259834 14.36377917 -1 13 C-0.76518307 10.81707226 -0.58636677 8.62796826 -0.4375 6.4375 C-0.35371094 5.23996094 -0.26992187 4.04242188 -0.18359375 2.80859375 C-0.12300781 1.88175781 -0.06242188 0.95492187 0 0 Z " fill="#323232" transform="translate(178,152)"/>
<path d="M0 0 C0.35191406 0.79664062 0.70382813 1.59328125 1.06640625 2.4140625 C4.2154308 9.17254338 6.93034471 13.62984819 13 18 C12 21 12 21 10.25 22.16796875 C4.96559916 24.56246288 -0.16762789 26.29998656 -6 25 C-7.7578125 23.47265625 -7.7578125 23.47265625 -9 22 C-9.7425 22.78375 -10.485 23.5675 -11.25 24.375 C-13.54433318 26.56504531 -15.12158858 27.82731386 -18 29 C-16.47291037 25.56404834 -14.40072955 22.88087546 -12 20 C-13.051875 20.495 -14.10375 20.99 -15.1875 21.5 C-18.25452609 22.82779788 -20.62134936 23.30715006 -24 23 C-22 21 -20 19 -18 17 C-19.98 17 -21.96 17 -24 17 C-23 14 -23 14 -21.375 12.8125 C-18.13855391 11.70529476 -15.39386815 11.74860236 -12 12 C-11.34 12.66 -10.68 13.32 -10 14 C-6.91652174 14.16681109 -6.91652174 14.16681109 -4 14 C-4.10699219 13.24074219 -4.21398437 12.48148438 -4.32421875 11.69921875 C-4.44410156 10.70535156 -4.56398438 9.71148437 -4.6875 8.6875 C-4.81511719 7.70136719 -4.94273438 6.71523437 -5.07421875 5.69921875 C-5 3 -5 3 -3.64453125 1.14453125 C-2 0 -2 0 0 0 Z " fill="#F4F4F4" transform="translate(55,98)"/>
<path d="M0 0 C1.67542976 0.28604898 3.34385343 0.61781233 5 1 C5 2.65 5 4.3 5 6 C5.845625 5.94199219 6.69125 5.88398438 7.5625 5.82421875 C13.89289703 5.5724416 19.0591362 5.36801122 24.28515625 9.24609375 C30.48767987 15.58990492 34.0756344 23.56324111 34.125 32.375 C34.09316134 33.91690094 34.05482724 35.45874525 34 37 C33.34 37 32.68 37 32 37 C31.88785156 35.65808594 31.88785156 35.65808594 31.7734375 34.2890625 C30.69953902 24.41340788 28.46393284 17.46393284 21.375 10.375 C16.20266327 8.2677517 11.49391286 8.05550842 6 9 C-1.27896468 12.33324758 -4.51381204 18.06160192 -7.25 25.3125 C-8.96356986 33.73755182 -8.51666398 40.53834904 -4 48 C-1.89719366 50.35659368 -1.89719366 50.35659368 0 52 C0 52.66 0 53.32 0 54 C-3.67591895 52.9789114 -4.9339798 52.08564783 -7.3125 49 C-9 46 -9 46 -9 44 C-10.2684375 44.495 -10.2684375 44.495 -11.5625 45 C-15.45064363 46.13109633 -17.97255359 46.55550985 -22 46 C-26.94975836 43.26941374 -30.49426743 40.11681125 -33 35 C-33.8797969 30.05540502 -34.02333718 25.14218583 -31.828125 20.546875 C-29.1640683 16.83916723 -26.31843373 13.68524243 -22 12 C-16.75042516 11.42731911 -13.50079951 12.27858634 -9 15 C-8.34 15.66 -7.68 16.32 -7 17 C-6.27683594 16.15115234 -6.27683594 16.15115234 -5.5390625 15.28515625 C-4.90742187 14.55167969 -4.27578125 13.81820312 -3.625 13.0625 C-2.99851562 12.33160156 -2.37203125 11.60070312 -1.7265625 10.84765625 C0 9 0 9 2 8 C1.01 7.67 0.02 7.34 -1 7 C-1.04254356 5.00045254 -1.04080783 2.99958364 -1 1 C-0.67 0.67 -0.34 0.34 0 0 Z M-29 20 C-31.12283802 24.33797334 -31.42782616 28.20834698 -31 33 C-29.27694416 37.62504462 -27.35344121 40.59171337 -23 43 C-18.95354138 43.45315231 -14.70721667 43.85360833 -11 42 C-10.73687274 39.43450923 -10.57795083 36.94737735 -10.5 34.375 C-10.32876985 28.90570742 -9.69862094 24.21914984 -8 19 C-11.45072003 15.54927997 -13.04696174 14.16640351 -17.9375 13.3125 C-22.86763474 13.64369907 -25.93640973 16.29144336 -29 20 Z " fill="#343434" transform="translate(76,20)"/>
<path d="M0 0 C0.66 0.66 1.32 1.32 2 2 C1.89515482 4.73196571 1.6721237 7.29979412 1.3125 10 C1.21654541 10.76658936 1.12059082 11.53317871 1.02172852 12.32299805 C0.24528562 18.10331958 -1.09720179 23.48732176 -3 29 C-3.66679801 31.11688043 -3.66679801 31.11688043 -4 33 C-3.505 33.495 -3.505 33.495 -3 34 C-1.02 29.545 -1.02 29.545 1 25 C2 28 2 28 1.22265625 29.953125 C0.64837891 31.09007812 0.64837891 31.09007812 0.0625 32.25 C-2.97861308 39.34942606 -3.45649157 48.63052528 -1 56 C-0.92970879 58.57265818 -0.90629168 61.11641431 -0.9375 63.6875 C-0.94201172 64.38939453 -0.94652344 65.09128906 -0.95117188 65.81445312 C-0.96293073 67.54300538 -0.98086546 69.27151365 -1 71 C-2.67110042 68.03821227 -3.32682752 65.62928808 -3.625 62.25 C-3.69976562 61.45078125 -3.77453125 60.6515625 -3.8515625 59.828125 C-3.92503906 58.92320312 -3.92503906 58.92320312 -4 58 C-4.66 58 -5.32 58 -6 58 C-5.979375 59.27875 -5.95875 60.5575 -5.9375 61.875 C-5.875 65.75 -5.875 65.75 -7 68 C-8.98 67.67 -10.96 67.34 -13 67 C-13 65.02 -13 63.04 -13 61 C-12.34 61 -11.68 61 -11 61 C-10.67 62.65 -10.34 64.3 -10 66 C-9.34 66 -8.68 66 -8 66 C-8 64.02 -8 62.04 -8 60 C-9.65 60 -11.3 60 -13 60 C-12.02133662 58.85373678 -11.04205413 57.70800212 -10.0625 56.5625 C-9.24458984 55.60537109 -9.24458984 55.60537109 -8.41015625 54.62890625 C-7.63204305 53.73008851 -6.84063472 52.84063472 -6 52 C-5.19928885 41.20579771 -5.93717171 29.32742814 -12 20 C-14.54730973 17.70742124 -17.14918162 15.90054559 -20 14 C-16.24044909 14.26229425 -14.33893537 14.72562375 -11.375 17.125 C-8.75888056 20.29188142 -6.91864381 23.37589503 -5 27 C-3.42999355 22.783773 -2.71724607 19.11113128 -2.5 14.625 C-2.17653134 9.4906702 -1.44930385 4.92763311 0 0 Z " fill="#282828" transform="translate(214,119)"/>
<path d="M0 0 C0.66 0 1.32 0 2 0 C1.835 0.61875 1.67 1.2375 1.5 1.875 C0.92365356 3.96063386 0.92365356 3.96063386 1 6 C1.77085938 5.6390625 2.54171875 5.278125 3.3359375 4.90625 C4.33882812 4.4421875 5.34171875 3.978125 6.375 3.5 C7.37273437 3.0359375 8.37046875 2.571875 9.3984375 2.09375 C12 1 12 1 14 1 C14 1.66 14 2.32 14 3 C12.25318707 3.98484108 10.5024149 4.96266187 8.75 5.9375 C7.28820312 6.75541016 7.28820312 6.75541016 5.796875 7.58984375 C3.46389591 8.76610835 1.54649238 9.52101691 -1 10 C8.41002278 7.88838269 8.41002278 7.88838269 13 7 C13 7.66 13 8.32 13 9 C8.41904586 11.34374398 4.63443819 12.21701334 -0.5 12.75 C-6.31918345 13.51339115 -9.06797436 14.99571503 -12.73046875 19.5390625 C-13.14941406 20.02117187 -13.56835938 20.50328125 -14 21 C-14.66 21 -15.32 21 -16 21 C-13.74869645 27.0503783 -10.3663497 29.01388605 -5 32 C-4.01 32.66 -3.02 33.32 -2 34 C-2.66 34.99 -3.32 35.98 -4 37 C-5.77662117 35.92618483 -7.54609689 34.840542 -9.3125 33.75 C-10.29863281 33.14671875 -11.28476563 32.5434375 -12.30078125 31.921875 C-14.82922888 30.12159102 -16.326533 28.58159415 -18 26 C-21.99500618 27.3697164 -24.80009492 29.25722422 -28 32 C-28.66 31.34 -29.32 30.68 -30 30 C-29.01 27.36 -28.02 24.72 -27 22 C-26.34 22 -25.68 22 -25 22 C-25 22.99 -25 23.98 -25 25 C-15.84293344 18.32020748 -7.55645975 10.81269951 -1.15625 1.3984375 C-0.7746875 0.93695313 -0.393125 0.47546875 0 0 Z " fill="#1A1A1A" transform="translate(126,114)"/>
<path d="M0 0 C3.12603999 -0.49035921 5.89576202 -0.69272425 9 0 C11.31645124 2.36608948 12.58735759 5.03288361 14 8 C14.99 9.485 14.99 9.485 16 11 C15.5390625 13.26171875 15.5390625 13.26171875 14.625 15.6875 C14.18027344 16.89986328 14.18027344 16.89986328 13.7265625 18.13671875 C13.36691406 19.05904297 13.36691406 19.05904297 13 20 C7.06039223 19.09584425 2.53364788 14.60672858 -1 10 C-1.54411926 6.39583391 -1.05678613 3.46712709 0 0 Z " fill="#F3F3F3" transform="translate(169,169)"/>
<path d="M0 0 C0.66 0 1.32 0 2 0 C0.69484268 4.57819432 -1.08893109 7.88410353 -3.9375 11.6875 C-4.62714844 12.61949219 -5.31679687 13.55148438 -6.02734375 14.51171875 C-8 17 -8 17 -9.60717773 18.34521484 C-11.51654232 20.61369392 -11.33134882 22.0317108 -11.2578125 24.96484375 C-11.24363281 25.92970703 -11.22945312 26.89457031 -11.21484375 27.88867188 C-11.18519531 28.89478516 -11.15554687 29.90089844 -11.125 30.9375 C-11.08152833 32.92568973 -11.0423005 34.91397789 -11.0078125 36.90234375 C-10.98348145 37.78398193 -10.95915039 38.66562012 -10.93408203 39.57397461 C-10.9967883 41.88179746 -11.34365223 43.79499165 -12 46 C-10.02 46 -8.04 46 -6 46 C-6 42.04 -6 38.08 -6 34 C-5.01 33.505 -5.01 33.505 -4 33 C-3.9189794 35.10353495 -3.86080093 37.20795952 -3.8125 39.3125 C-3.77769531 40.48425781 -3.74289063 41.65601563 -3.70703125 42.86328125 C-4 46 -4 46 -5.34375 47.875 C-7.49241319 49.33446934 -9.44890726 49.65525774 -12 50 C-12.66 52.97 -13.32 55.94 -14 59 C-14.99 58.67 -15.98 58.34 -17 58 C-18.1875 55.4375 -18.1875 55.4375 -19 53 C-18.01 53.33 -17.02 53.66 -16 54 C-15.26329764 49.30450557 -14.83135571 44.72214776 -14.68359375 39.97265625 C-14.64169922 38.68681641 -14.59980469 37.40097656 -14.55664062 36.07617188 C-14.516843 34.73828375 -14.47713049 33.40039309 -14.4375 32.0625 C-14.39423346 30.69725438 -14.35061679 29.33201982 -14.30664062 27.96679688 C-14.20098847 24.64462348 -14.09888605 21.32238054 -14 18 C-13.06619507 17.57219238 -13.06619507 17.57219238 -12.11352539 17.13574219 C-6.32755021 14.02654079 -2.626771 5.87160577 0 0 Z " fill="#191919" transform="translate(182,119)"/>
<path d="M0 0 C2.97797798 6.07507508 2.97797798 6.07507508 3.0625 9.625 C1.45931075 13.2085995 -0.81151161 14.72250829 -4 17 C-4.66 17 -5.32 17 -6 17 C-4.47291037 13.56404834 -2.40072955 10.88087546 0 8 C-1.051875 8.495 -2.10375 8.99 -3.1875 9.5 C-6.25452609 10.82779788 -8.62134936 11.30715006 -12 11 C-10 9 -8 7 -6 5 C-7.98 5 -9.96 5 -12 5 C-11 2 -11 2 -9.375 0.8125 C-6.19617272 -0.27499354 -3.33338467 -0.1282071 0 0 Z " fill="#272727" transform="translate(43,110)"/>
<path d="M0 0 C0.66 0.66 1.32 1.32 2 2 C1.89515482 4.73196571 1.6721237 7.29979412 1.3125 10 C1.21654541 10.76658936 1.12059082 11.53317871 1.02172852 12.32299805 C0.24528562 18.10331958 -1.09720179 23.48732176 -3 29 C-3.79058885 31.97862701 -4.41181507 34.97504893 -5 38 C-5.33 38 -5.66 38 -6 38 C-6.18175781 37.20335937 -6.36351562 36.40671875 -6.55078125 35.5859375 C-8.97380684 25.3719527 -11.11807905 19.92128064 -20 14 C-16.24044909 14.26229425 -14.33893537 14.72562375 -11.375 17.125 C-8.75888056 20.29188142 -6.91864381 23.37589503 -5 27 C-3.42999355 22.783773 -2.71724607 19.11113128 -2.5 14.625 C-2.17653134 9.4906702 -1.44930385 4.92763311 0 0 Z " fill="#2B2B2B" transform="translate(214,119)"/>
<path d="M0 0 C1.875 1.1875 1.875 1.1875 3 3 C3.3125 5.5625 3.3125 5.5625 3 8 C0.50494038 10.49505962 -0.67328888 10.35948376 -4.125 10.625 C-5.03507812 10.69976562 -5.94515625 10.77453125 -6.8828125 10.8515625 C-7.93082031 10.92503906 -7.93082031 10.92503906 -9 11 C-10.32342458 7.02972626 -9.36639254 4.88343142 -8 1 C-5.20129973 -0.39935013 -3.09501208 -0.25265405 0 0 Z " fill="#404040" transform="translate(65,18)"/>
<path d="M0 0 C6.4294262 7.62624579 10.36439835 16.18639008 12 26 C11.34 26 10.68 26 10 26 C9.01 23.36 8.02 20.72 7 18 C6.01 18 5.02 18 4 18 C3.18618205 16.06305322 2.37399084 14.12542289 1.5625 12.1875 C1.11003906 11.10855469 0.65757812 10.02960937 0.19140625 8.91796875 C-0.60375013 6.9704874 -1.33479648 4.99561057 -2 3 C-1.34 2.01 -0.68 1.02 0 0 Z " fill="#343434" transform="translate(151,47)"/>
<path d="M0 0 C0.66 0 1.32 0 2 0 C0.69484268 4.57819432 -1.08893109 7.88410353 -3.9375 11.6875 C-4.62714844 12.61949219 -5.31679687 13.55148438 -6.02734375 14.51171875 C-8 17 -8 17 -9.60498047 18.33642578 C-11.53380255 20.63656467 -11.34447351 22.13536103 -11.29296875 25.10546875 C-11.28330078 26.08837891 -11.27363281 27.07128906 -11.26367188 28.08398438 C-11.2259668 29.62022461 -11.2259668 29.62022461 -11.1875 31.1875 C-11.17396484 32.22326172 -11.16042969 33.25902344 -11.14648438 34.32617188 C-11.11111389 36.88463699 -11.06175544 39.4420578 -11 42 C-11.66 42 -12.32 42 -13 42 C-13.33 34.08 -13.66 26.16 -14 18 C-12.68 17.34 -11.36 16.68 -10 16 C-5.95030094 11.15777919 -2.57674178 5.75977574 0 0 Z " fill="#1E1E1E" transform="translate(182,119)"/>
<path d="M0 0 C-5.24493326 3.34782974 -9.87903309 4.94513949 -16 6 C-13.03 6.495 -13.03 6.495 -10 7 C-10 7.33 -10 7.66 -10 8 C-16.01978696 8.19110435 -22.33657477 8.36397437 -28 6 C-28.33 5.01 -28.66 4.02 -29 3 C-28.03320312 2.96261719 -27.06640625 2.92523438 -26.0703125 2.88671875 C-18.9980922 2.52960664 -12.74583525 2.04420049 -6.05078125 -0.4765625 C-3.67046554 -1.08410975 -2.30063061 -0.77899456 0 0 Z " fill="#141414" transform="translate(93,89)"/>
<path d="M0 0 C0.66 0 1.32 0 2 0 C2.03867188 1.25103516 2.03867188 1.25103516 2.078125 2.52734375 C2.50197591 10.9369311 3.37782245 18.07597432 9.25 24.4375 C9.8275 24.953125 10.405 25.46875 11 26 C11 26.66 11 27.32 11 28 C7.32408105 26.9789114 6.0660202 26.08564783 3.6875 23 C2 20 2 20 2 18 C1.01 18.33 0.02 18.66 -1 19 C-2.56118428 19.06740865 -4.1250252 19.08514456 -5.6875 19.0625 C-6.89986328 19.04896484 -6.89986328 19.04896484 -8.13671875 19.03515625 C-8.75160156 19.02355469 -9.36648437 19.01195313 -10 19 C-10 18.67 -10 18.34 -10 18 C-6.7 17.34 -3.4 16.68 0 16 C0 10.72 0 5.44 0 0 Z " fill="#161616" transform="translate(65,46)"/>
<path d="M0 0 C0.66 0 1.32 0 2 0 C3.67319631 5.85618709 4.19299368 11.25846155 4.1875 17.3125 C4.18814453 18.00601563 4.18878906 18.69953125 4.18945312 19.4140625 C4.15388976 22.74408664 4.02316864 25.81589919 3 29 C2.34 29 1.68 29 1 29 C1 25.7 1 22.4 1 19 C0.34 19.99 -0.32 20.98 -1 22 C-1.02887814 18.52085059 -1.04675687 15.04173169 -1.0625 11.5625 C-1.07087891 10.56927734 -1.07925781 9.57605469 -1.08789062 8.55273438 C-1.09111328 7.60849609 -1.09433594 6.66425781 -1.09765625 5.69140625 C-1.10289307 4.81685791 -1.10812988 3.94230957 -1.11352539 3.04125977 C-1 1 -1 1 0 0 Z " fill="#4D4D4D" transform="translate(190,86)"/>
<path d="M0 0 C7.09448425 8.16746493 9.58876787 16.35856592 9 27 C8.34 27 7.68 27 7 27 C6.92523438 26.10539062 6.85046875 25.21078125 6.7734375 24.2890625 C5.70738241 14.4855363 3.61009765 7.2003112 -3.8125 0.4375 C-7.86831019 -1.39159087 -11.58828941 -1.80392397 -16 -2 C-16 -2.33 -16 -2.66 -16 -3 C-9.56653865 -4.37859886 -5.28918894 -4.18316806 0 0 Z " fill="#424242" transform="translate(101,30)"/>
<path d="M0 0 C2.31 0 4.62 0 7 0 C7 1.98 7 3.96 7 6 C6.34 6 5.68 6 5 6 C4.67 4.35 4.34 2.7 4 1 C3.34 1 2.68 1 2 1 C2.08378906 1.62648437 2.16757813 2.25296875 2.25390625 2.8984375 C2.35574219 3.71570313 2.45757812 4.53296875 2.5625 5.375 C2.66691406 6.18710938 2.77132812 6.99921875 2.87890625 7.8359375 C3 10 3 10 2 12 C-0.96175123 11.38722388 -2.38058783 10.74627478 -5 9 C-5.1875 6.375 -5.1875 6.375 -5 4 C-4.34 4 -3.68 4 -3 4 C-2.67 5.32 -2.34 6.64 -2 8 C-1.34 5.36 -0.68 2.72 0 0 Z " fill="#626262" transform="translate(199,179)"/>
<path d="M0 0 C2 0 2 0 3.64453125 1.20703125 C5 3 5 3 5.07421875 5.26171875 C4.88279297 6.46248047 4.88279297 6.46248047 4.6875 7.6875 C4.50767578 8.89986328 4.50767578 8.89986328 4.32421875 10.13671875 C4.21722656 10.75160156 4.11023438 11.36648437 4 12 C3.34 12 2.68 12 2 12 C1.67 10.35 1.34 8.7 1 7 C-0.98 8.32 -2.96 9.64 -5 11 C-4.46968862 6.4923533 -2.74778884 3.58045212 0 0 Z " fill="#808080" transform="translate(98,169)"/>
<path d="M0 0 C3.3 0 6.6 0 10 0 C9.67 2.64 9.34 5.28 9 8 C8.34 7.67 7.68 7.34 7 7 C7 5.68 7 4.36 7 3 C6.34 3 5.68 3 5 3 C5 4.65 5 6.3 5 8 C5.66 8 6.32 8 7 8 C7 8.66 7 9.32 7 10 C5.0625 9.625 5.0625 9.625 3 9 C2.67 8.34 2.34 7.68 2 7 C1.01 7 0.02 7 -1 7 C0.32 5.35 1.64 3.7 3 2 C2.01 2 1.02 2 0 2 C0 1.34 0 0.68 0 0 Z " fill="#121212" transform="translate(189,180)"/>
<path d="M0 0 C0.66 0.33 1.32 0.66 2 1 C1.39671875 1.58007812 0.7934375 2.16015625 0.171875 2.7578125 C-8.23272556 10.97263176 -11.84460089 17.68755852 -15 29 C-17 26 -17 26 -16.8125 23.14453125 C-14.36129949 13.65791388 -7.01756414 6.44470176 0 0 Z " fill="#383838" transform="translate(98,92)"/>
<path d="M0 0 C0.99 0 1.98 0 3 0 C3.29132812 0.66386719 3.58265625 1.32773438 3.8828125 2.01171875 C6.53701471 7.72910401 8.81466243 11.38232262 14 15 C13.01 16.485 13.01 16.485 12 18 C6.41513511 13.89584857 2.66687653 9.45212063 0 3 C0 2.01 0 1.02 0 0 Z " fill="#222222" transform="translate(55,98)"/>
<path d="M0 0 C0.33 0 0.66 0 1 0 C1.45364693 5.55717489 0.58568908 10.43619164 -0.8125 15.8125 C-0.97782227 16.47064697 -1.14314453 17.12879395 -1.31347656 17.80688477 C-2.26330894 21.28736755 -3.09193012 23.75853639 -6 26 C-5.31781795 20.63492244 -4.25856493 15.44520061 -3 10.1875 C-2.82210937 9.42501953 -2.64421875 8.66253906 -2.4609375 7.87695312 C-1.12991071 2.25982143 -1.12991071 2.25982143 0 0 Z " fill="#484848" transform="translate(168,84)"/>
<path d="M0 0 C1.875 0.3125 1.875 0.3125 4 1 C6.4294516 4.6441774 6.16179575 6.71241272 6 11 C5.01 11 4.02 11 3 11 C0 4.5 0 4.5 0 0 Z " fill="#EAEAEA" transform="translate(43,99)"/>
<path d="M0 0 C6.35714286 0.48901099 6.35714286 0.48901099 9.4375 2.9375 C11 5 11 5 11 7 C4.64285714 6.51098901 4.64285714 6.51098901 1.5625 4.0625 C0 2 0 2 0 0 Z " fill="#EEEEEE" transform="translate(90,154)"/>
<path d="M0 0 C3.12270126 2.51830747 3.94523098 3.7261549 4.75 7.75 C4.8325 8.8225 4.915 9.895 5 11 C4.4225 10.79375 3.845 10.5875 3.25 10.375 C0.48032433 9.91338739 -0.64561267 10.57055055 -3 12 C-2.34 9.69 -1.68 7.38 -1 5 C-0.34 5 0.32 5 1 5 C0.67 3.35 0.34 1.7 0 0 Z " fill="#232323" transform="translate(52,40)"/>
<path d="M0 0 C1.4540625 0.0309375 1.4540625 0.0309375 2.9375 0.0625 C3.31968767 1.71864657 3.65145102 3.38707024 3.9375 5.0625 C2.9375 6.0625 2.9375 6.0625 -0.625 6.125 C-1.759375 6.104375 -2.89375 6.08375 -4.0625 6.0625 C-4.105221 4.39638095 -4.10313832 2.72867115 -4.0625 1.0625 C-3.0625 0.0625 -3.0625 0.0625 0 0 Z " fill="#F6F6F6" transform="translate(62.0625,19.9375)"/>
<path d="M0 0 C0.66 0 1.32 0 2 0 C2 0.99 2 1.98 2 3 C3.32 2.01 4.64 1.02 6 0 C8 1 8 1 9 3 C8.16855469 3.50660156 8.16855469 3.50660156 7.3203125 4.0234375 C6.59585938 4.46945313 5.87140625 4.91546875 5.125 5.375 C4.40570313 5.81585938 3.68640625 6.25671875 2.9453125 6.7109375 C0.88206418 7.9853713 0.88206418 7.9853713 -1 10 C-1.66 9.34 -2.32 8.68 -3 8 C-2.01 5.36 -1.02 2.72 0 0 Z " fill="#2A2A2A" transform="translate(99,136)"/>
<path d="M0 0 C1.67542976 0.28604898 3.34385343 0.61781233 5 1 C5.33 2.98 5.66 4.96 6 7 C2.86650268 8.04449911 2.01031744 7.93423645 -1 7 C-1.04254356 5.00045254 -1.04080783 2.99958364 -1 1 C-0.67 0.67 -0.34 0.34 0 0 Z " fill="#9D9D9D" transform="translate(76,20)"/>
<path d="M0 0 C0.66 0 1.32 0 2 0 C3.06630801 5.43040303 2.79974414 9.5725988 1.5625 14.9375 C1.41490234 15.62134766 1.26730469 16.30519531 1.11523438 17.00976562 C0.75412706 18.67551872 0.37857288 20.33812923 0 22 C-0.33 22 -0.66 22 -1 22 C-1.02887814 18.52085059 -1.04675687 15.04173169 -1.0625 11.5625 C-1.07087891 10.56927734 -1.07925781 9.57605469 -1.08789062 8.55273438 C-1.09111328 7.60849609 -1.09433594 6.66425781 -1.09765625 5.69140625 C-1.10289307 4.81685791 -1.10812988 3.94230957 -1.11352539 3.04125977 C-1 1 -1 1 0 0 Z " fill="#2F2F2F" transform="translate(190,86)"/>
<path d="M0 0 C2.33936818 2.12669835 3.80653848 4.06224856 5 7 C5 7.99 5 8.98 5 10 C4.34 10 3.68 10 3 10 C3 11.65 3 13.3 3 15 C2.34 15 1.68 15 1 15 C0.83105557 13.25021843 0.66493691 11.50016388 0.5 9.75 C0.4071875 8.77546875 0.314375 7.8009375 0.21875 6.796875 C0.04199832 4.53697847 0 2.26679807 0 0 Z " fill="#AEAEAE" transform="translate(117,38)"/>
<path d="M0 0 C0.66 0 1.32 0 2 0 C0.69634262 4.54936107 -1.06615087 7.8876041 -3.875 11.6875 C-4.55304688 12.61949219 -5.23109375 13.55148438 -5.9296875 14.51171875 C-7.81425498 16.77675551 -9.56535373 18.36780441 -12 20 C-12.33 19.34 -12.66 18.68 -13 18 C-12.319375 17.38125 -11.63875 16.7625 -10.9375 16.125 C-6.44218973 11.64257027 -2.0141683 6.0425049 0 0 Z " fill="#454545" transform="translate(182,119)"/>
<path d="M0 0 C0 1.32 0 2.64 0 4 C-3.96 4 -7.92 4 -12 4 C-7.73879649 -0.26120351 -5.91872136 -0.10960595 0 0 Z " fill="#D5D5D5" transform="translate(43,110)"/>
<path d="M0 0 C0.99 1.32 1.98 2.64 3 4 C-0.44615385 8.8 -0.44615385 8.8 -3.25 9.8125 C-3.8275 9.874375 -4.405 9.93625 -5 10 C-4.690625 9.401875 -4.38125 8.80375 -4.0625 8.1875 C-2.89790296 5.91043228 -2.89790296 5.91043228 -2 3 C-2.99 2.67 -3.98 2.34 -5 2 C-3.35 1.34 -1.7 0.68 0 0 Z " fill="#808080" transform="translate(185,201)"/>
<path d="M0 0 C0.66 0 1.32 0 2 0 C4.8751252 5.90377651 6.83805848 11.53287812 8 18 C7.34 18 6.68 18 6 18 C4.9936345 15.56495491 3.99473587 13.12729136 3 10.6875 C2.71382812 9.99720703 2.42765625 9.30691406 2.1328125 8.59570312 C0.91089256 5.58454326 0 3.28113016 0 0 Z " fill="#292929" transform="translate(155,55)"/>
<path d="M0 0 C3 1 3 1 4 3 C2.329375 3.2784375 2.329375 3.2784375 0.625 3.5625 C-0.57125 4.036875 -1.7675 4.51125 -3 5 C-4.54086322 8.51400668 -4.54086322 8.51400668 -5 12 C-5.99 10.68 -6.98 9.36 -8 8 C-6.49860488 3.79609368 -3.82724957 2.10889262 0 0 Z " fill="#BCBCBC" transform="translate(60,15)"/>
<path d="M0 0 C1.35683751 1.6475884 2.68456721 3.31916921 4 5 C4.721875 5.9075 5.44375 6.815 6.1875 7.75 C8.46985349 11.84249592 8.79471307 15.38104404 9 20 C6.57054132 17.57054132 5.82527785 15.37788266 4.5625 12.1875 C2.98834234 8.21509587 1.28974452 4.61152124 -1 1 C-0.67 0.67 -0.34 0.34 0 0 Z " fill="#3A3A3A" transform="translate(109,26)"/>
<path d="M0 0 C0.99 0.33 1.98 0.66 3 1 C3 3.64 3 6.28 3 9 C2.01 9.33 1.02 9.66 0 10 C-1.49106457 7.01787087 -1.11941467 4.28390342 -1 1 C-0.67 0.67 -0.34 0.34 0 0 Z " fill="#D6D6D6" transform="translate(145,193)"/>
<path d="M0 0 C0 0.66 0 1.32 0 2 C-5.26089835 4.57448217 -10.09994769 5.9519344 -16 6 C-16.66 5.67 -17.32 5.34 -18 5 C-17.67 4.34 -17.34 3.68 -17 3 C-15.14453125 2.65625 -15.14453125 2.65625 -12.8125 2.5 C-8.42614248 2.11584448 -4.27222635 0 0 0 Z " fill="#353535" transform="translate(139,121)"/>
<path d="M0 0 C0.99 0.33 1.98 0.66 3 1 C-2.14285714 7.57142857 -2.14285714 7.57142857 -6 9 C-5.70381606 5.44579276 -5.19662957 4.19662957 -2.625 1.625 C-1.325625 0.820625 -1.325625 0.820625 0 0 Z " fill="#E5E5E5" transform="translate(95,165)"/>
<path d="M0 0 C0.66 0.66 1.32 1.32 2 2 C1.9765625 4.6015625 1.9765625 4.6015625 1.625 7.625 C1.51414063 8.62789062 1.40328125 9.63078125 1.2890625 10.6640625 C1.19367188 11.43492187 1.09828125 12.20578125 1 13 C0.67 13 0.34 13 0 13 C-0.33 14.65 -0.66 16.3 -1 18 C-1.66 17.67 -2.32 17.34 -3 17 C-2.68985608 14.91631462 -2.3767948 12.83306332 -2.0625 10.75 C-1.88847656 9.58984375 -1.71445313 8.4296875 -1.53515625 7.234375 C-1.1272264 4.76893039 -0.66098697 2.40575438 0 0 Z " fill="#848484" transform="translate(214,119)"/>
<path d="M0 0 C0.98484375 0.01804687 1.9696875 0.03609375 2.984375 0.0546875 C4.10585937 0.08949219 4.10585937 0.08949219 5.25 0.125 C5.25 0.455 5.25 0.785 5.25 1.125 C4.16332031 1.27195312 4.16332031 1.27195312 3.0546875 1.421875 C-3.48031684 2.3396087 -3.48031684 2.3396087 -9.25 5.3125 C-10.4875 6.2096875 -10.4875 6.2096875 -11.75 7.125 C-12.74 6.795 -13.73 6.465 -14.75 6.125 C-9.68836567 1.90697139 -6.68145606 -0.15908229 0 0 Z " fill="#121212" transform="translate(87.75,25.875)"/>
<path d="M0 0 C2.45391569 3.68087353 2.22802759 6.44355588 2.125 10.6875 C2.11597656 11.38939453 2.10695312 12.09128906 2.09765625 12.81445312 C2.07413704 14.54311525 2.03826713 16.27160145 2 18 C0.01013015 14.63752605 -0.39728463 11.74771002 -0.6875 7.875 C-0.77386719 6.82054687 -0.86023438 5.76609375 -0.94921875 4.6796875 C-1 2 -1 2 0 0 Z " fill="#323232" transform="translate(211,172)"/>
<path d="M0 0 C2.23551759 3.35327639 2.17283528 3.90743657 1.625 7.6875 C1.51414063 8.49574219 1.40328125 9.30398437 1.2890625 10.13671875 C1.19367188 10.75160156 1.09828125 11.36648437 1 12 C0.01 11.67 -0.98 11.34 -2 11 C-3.1875 8.4375 -3.1875 8.4375 -4 6 C-3.01 6.33 -2.02 6.66 -1 7 C-0.67 4.69 -0.34 2.38 0 0 Z " fill="#242424" transform="translate(167,166)"/>
<path d="M0 0 C0.99 0.33 1.98 0.66 3 1 C2.3125 3.375 2.3125 3.375 1 6 C-1.625 7.3125 -1.625 7.3125 -4 8 C-3.50168276 4.31245243 -2.89932357 2.39509338 0 0 Z " fill="#E6E6E6" transform="translate(71,140)"/>
<path d="M0 0 C0.99 0.33 1.98 0.66 3 1 C2.40312566 4.34249629 1.26396123 6.46436342 -1 9 C-1.66 9 -2.32 9 -3 9 C-2.5020163 5.26512223 -2.12508244 3.18762365 0 0 Z " fill="#CBCBCB" transform="translate(76,146)"/>
<path d="M0 0 C0.66 0 1.32 0 2 0 C1.39305845 3.15330554 0.3583335 5.18888867 -1.5625 7.75 C-2.24505859 8.67039063 -2.24505859 8.67039063 -2.94140625 9.609375 C-3.29074219 10.06828125 -3.64007813 10.5271875 -4 11 C-4.64453125 9.234375 -4.64453125 9.234375 -5 7 C-4.07421875 5.078125 -4.07421875 5.078125 -2.6875 3.25 C-2.23761719 2.63640625 -1.78773437 2.0228125 -1.32421875 1.390625 C-0.88722656 0.93171875 -0.45023437 0.4728125 0 0 Z " fill="#DDDDDD" transform="translate(98,169)"/>
<path d="M0 0 C2.5 1.5625 2.5 1.5625 5 4 C5.3125 7.75 5.3125 7.75 5 11 C4.896875 10.360625 4.79375 9.72125 4.6875 9.0625 C4.460625 8.381875 4.23375 7.70125 4 7 C3.01 6.67 2.02 6.34 1 6 C1 5.34 1 4.68 1 4 C0.01 3.67 -0.98 3.34 -2 3 C-1.34 2.01 -0.68 1.02 0 0 Z " fill="#2C2C2C" transform="translate(99,165)"/>
<path d="M0 0 C2.97 0.33 5.94 0.66 9 1 C7.68 1.33 6.36 1.66 5 2 C4.67 3.32 4.34 4.64 4 6 C3.67 5.01 3.34 4.02 3 3 C0.525 4.485 0.525 4.485 -2 6 C-1.34 4.02 -0.68 2.04 0 0 Z " fill="#4F4F4F" transform="translate(187,208)"/>
<path d="M0 0 C0.99 0 1.98 0 3 0 C4.4783226 2.95664519 4.06032783 5.74229737 4 9 C3.34 9 2.68 9 2 9 C0.14223235 5.86501708 -0.20140476 3.62528568 0 0 Z " fill="#D2D2D2" transform="translate(153,195)"/>
<path d="M0 0 C0 0.66 0 1.32 0 2 C-5.10334017 3.905247 -9.46342706 5.42589023 -15 5 C-12.30932731 3.20621821 -9.91421743 2.02686042 -6.9375 0.8125 C-5.62072266 0.26529297 -5.62072266 0.26529297 -4.27734375 -0.29296875 C-2 -1 -2 -1 0 0 Z " fill="#C1C1C1" transform="translate(137,120)"/>
<path d="M0 0 C0 0.66 0 1.32 0 2 C-7.28571429 5.42857143 -7.28571429 5.42857143 -12 5 C-8.86437565 1.16757024 -4.85172875 0 0 0 Z " fill="#E1E1E1" transform="translate(43,116)"/>
<path d="M0 0 C0.33 0 0.66 0 1 0 C1.40214229 6.16618181 -0.03181664 11.17745757 -2 17 C-2.99 17 -3.98 17 -5 17 C-4.72285156 16.27554688 -4.44570312 15.55109375 -4.16015625 14.8046875 C-1.44378773 7.57244353 -1.44378773 7.57244353 0 0 Z " fill="#424242" transform="translate(213,131)"/>
<path d="M0 0 C5.19863564 -0.31191814 8.61602577 0.07735051 13 3 C13.875 5.1875 13.875 5.1875 14 7 C13.175 6.38125 12.35 5.7625 11.5 5.125 C7.8487774 2.66173499 4.28637498 1.8868362 0 1 C0 0.67 0 0.34 0 0 Z " fill="#4B4B4B" transform="translate(54,32)"/>
<path d="M0 0 C0.99 0.33 1.98 0.66 3 1 C2.01 3.97 1.02 6.94 0 10 C-2 7 -2 7 -1.6875 5 C-1.460625 4.34 -1.23375 3.68 -1 3 C-0.67 2.01 -0.34 1.02 0 0 Z " fill="#DDDDDD" transform="translate(211,145)"/>
<path d="M0 0 C0 0.66 0 1.32 0 2 C-4.95 4.475 -4.95 4.475 -10 7 C-10.33 6.01 -10.66 5.02 -11 4 C-9.5437455 3.32880451 -8.08492133 2.66318193 -6.625 2 C-5.81289062 1.62875 -5.00078125 1.2575 -4.1640625 0.875 C-2 0 -2 0 0 0 Z " fill="#262626" transform="translate(140,115)"/>
<path d="M0 0 C1.53690745 2.41040161 2.09752136 3.50082285 1.5390625 6.359375 C1.23742187 7.14828125 0.93578125 7.9371875 0.625 8.75 C0.32851562 9.54921875 0.03203125 10.3484375 -0.2734375 11.171875 C-0.51320313 11.77515625 -0.75296875 12.3784375 -1 13 C-3 10 -3 10 -2.75 7.0625 C-2.09911834 4.40473321 -1.35855538 2.35482933 0 0 Z " fill="#454545" transform="translate(84,108)"/>
<path d="M0 0 C2.20914 3.31371 2.22481553 4.3446021 2.125 8.1875 C2.10695313 9.08855469 2.08890625 9.98960938 2.0703125 10.91796875 C2.03550781 11.94857422 2.03550781 11.94857422 2 13 C1.34 13 0.68 13 0 13 C-0.19466332 11.20909747 -0.38051213 9.41723495 -0.5625 7.625 C-0.66691406 6.62726562 -0.77132812 5.62953125 -0.87890625 4.6015625 C-1 2 -1 2 0 0 Z " fill="#616161" transform="translate(108,44)"/>
<path d="M0 0 C6.8875 6.525 6.8875 6.525 7.125 11.75 C7.08375 12.4925 7.0425 13.235 7 14 C5.34347076 11.51520614 3.83927526 9.0363745 2.375 6.4375 C1.92898437 5.65246094 1.48296875 4.86742187 1.0234375 4.05859375 C0 2 0 2 0 0 Z " fill="#2E2E2E" transform="translate(101,32)"/>
<path d="M0 0 C1.134375 0.4125 2.26875 0.825 3.4375 1.25 C3.7675 2.24 4.0975 3.23 4.4375 4.25 C3.88320312 4.09402344 3.32890625 3.93804687 2.7578125 3.77734375 C2.03335938 3.58269531 1.30890625 3.38804688 0.5625 3.1875 C-0.15679687 2.99027344 -0.87609375 2.79304688 -1.6171875 2.58984375 C-3.63523593 2.03867393 -3.63523593 2.03867393 -5.5625 3.25 C-5.5625 2.26 -5.5625 1.27 -5.5625 0.25 C-3.5625 -0.75 -3.5625 -0.75 0 0 Z " fill="#1A1A1A" transform="translate(60.5625,89.75)"/>
<path d="M0 0 C3.63 0 7.26 0 11 0 C9.68 0.33 8.36 0.66 7 1 C7 1.66 7 2.32 7 3 C5.02 3 3.04 3 1 3 C0.67 2.01 0.34 1.02 0 0 Z " fill="#2F2F2F" transform="translate(64,92)"/>
<path d="M0 0 C0.99 0.66 1.98 1.32 3 2 C3.3125 4.5 3.3125 4.5 3 7 C1 9 1 9 -2.125 9.125 C-3.548125 9.063125 -3.548125 9.063125 -5 9 C-4.360625 8.773125 -3.72125 8.54625 -3.0625 8.3125 C-0.75007642 7.15671877 -0.75007642 7.15671877 -0.25 4.5 C0.03316791 2.08706575 0.03316791 2.08706575 0 0 Z " fill="#1D1D1D" transform="translate(65,19)"/>
<path d="M0 0 C0.66 0 1.32 0 2 0 C2.33 1.65 2.66 3.3 3 5 C3.99 5 4.98 5 6 5 C6 5.66 6 6.32 6 7 C3.03 6.505 3.03 6.505 0 6 C0 4.02 0 2.04 0 0 Z " fill="#0F0F0F" transform="translate(201,180)"/>
<path d="M0 0 C3.7726764 0.53895377 5.68212991 1.99535358 8 5 C7.75 7.25 7.75 7.25 7 9 C5.35 8.67 3.7 8.34 2 8 C3.32 7.67 4.64 7.34 6 7 C4.07423885 4.56070254 2.19909405 2.19909405 0 0 Z " fill="#464646" transform="translate(95,154)"/>
<path d="M0 0 C1.98 0.495 1.98 0.495 4 1 C3.690625 1.598125 3.38125 2.19625 3.0625 2.8125 C1.89790296 5.08956772 1.89790296 5.08956772 1 8 C0.34 8 -0.32 8 -1 8 C-0.67 5.36 -0.34 2.72 0 0 Z " fill="#878787" transform="translate(188,181)"/>
<path d="M0 0 C0.66 0 1.32 0 2 0 C1.43628586 3.26954202 0.50037734 4.82575883 -2 7 C-2.99 6.67 -3.98 6.34 -5 6 C-3.38405168 3.95880212 -1.7143618 1.95927063 0 0 Z " fill="#242424" transform="translate(126,114)"/>
<path d="M0 0 C-5.2734375 3.22265625 -5.2734375 3.22265625 -7 4 C-9 3 -9 3 -10 1 C-3.71428571 -1.42857143 -3.71428571 -1.42857143 0 0 Z " fill="#3F3F3F" transform="translate(93,89)"/>
<path d="M0 0 C1.67542976 0.28604898 3.34385343 0.61781233 5 1 C4.67 2.32 4.34 3.64 4 5 C4 4.01 4 3.02 4 2 C3.01 2 2.02 2 1 2 C1 3.32 1 4.64 1 6 C0.34 6 -0.32 6 -1 6 C-1.042721 4.33388095 -1.04063832 2.66617115 -1 1 C-0.67 0.67 -0.34 0.34 0 0 Z " fill="#2D2D2D" transform="translate(76,20)"/>
<path d="M0 0 C-0.99 1.485 -0.99 1.485 -2 3 C-4.31 2.67 -6.62 2.34 -9 2 C-8 0 -8 0 -6.1875 -0.6875 C-3.81180233 -1.02688538 -2.26664171 -0.72856341 0 0 Z " fill="#C7C7C7" transform="translate(85,94)"/>
<path d="M0 0 C2.15377564 2.62198774 3.40072174 4.64404172 4 8 C3.01 8.33 2.02 8.66 1 9 C0.67 6.03 0.34 3.06 0 0 Z " fill="#838383" transform="translate(154,56)"/>
<path d="M0 0 C0.33 0 0.66 0 1 0 C1 2.31 1 4.62 1 7 C1.66 7 2.32 7 3 7 C1.25 10.875 1.25 10.875 -1 12 C-0.67 8.04 -0.34 4.08 0 0 Z " fill="#CECECE" transform="translate(213,181)"/>
<path d="M0 0 C-1.28519565 2.86697492 -2.57129254 4.97607712 -5 7 C-5.66 7 -6.32 7 -7 7 C-3.86206897 0 -3.86206897 0 0 0 Z " fill="#DADADA" transform="translate(44,120)"/>
<path d="M0 0 C4.875 4.625 4.875 4.625 6 8 C3.5625 7.375 3.5625 7.375 1 6 C0.1875 2.875 0.1875 2.875 0 0 Z " fill="#222222" transform="translate(70,66)"/>
<path d="M0 0 C3 1 3 1 4 3 C0.7 3.66 -2.6 4.32 -6 5 C-5.195625 4.360625 -4.39125 3.72125 -3.5625 3.0625 C-1.7249496 1.59396498 -1.7249496 1.59396498 0 0 Z " fill="#C5C5C5" transform="translate(60,15)"/>
<path d="M0 0 C1.32 1.65 2.64 3.3 4 5 C2.125 6.0625 2.125 6.0625 0 7 C-0.66 6.67 -1.32 6.34 -2 6 C-2 2 -2 2 0 0 Z " fill="#373737" transform="translate(74,138)"/>
<path d="M0 0 C1.99788438 0.34578768 3.99759451 0.68143549 6 1 C6 1.33 6 1.66 6 2 C4.5629191 2.05422947 3.12524538 2.09289723 1.6875 2.125 C0.88699219 2.14820312 0.08648437 2.17140625 -0.73828125 2.1953125 C-3 2 -3 2 -6 0 C-3.42888996 -1.28555502 -2.73017334 -0.75838148 0 0 Z " fill="#666666" transform="translate(77,95)"/>
<path d="M0 0 C0.66 0 1.32 0 2 0 C5 4.38461538 5 4.38461538 5 7 C2 6 2 6 0 3 C0 2.01 0 1.02 0 0 Z " fill="#D0D0D0" transform="translate(160,193)"/>
<path d="M0 0 C4.7517398 0.43197635 6.92000054 1.32769295 10 5 C6.41954683 5 5.70316905 4.19632485 3 2 C2.01 1.34 1.02 0.68 0 0 Z " fill="#414141" transform="translate(194,133)"/>
<path d="M0 0 C2.31 1.65 4.62 3.3 7 5 C6.34 5.66 5.68 6.32 5 7 C2.5 5.1875 2.5 5.1875 0 3 C0 2.01 0 1.02 0 0 Z " fill="#202020" transform="translate(46,57)"/>
</svg>
